<svg width="193" height="55" viewBox="0 0 193 55" fill="none" xmlns="http://www.w3.org/2000/svg">
<g clip-path="url(#clip0_188_888)">
<mask id="mask0_188_888" style="mask-type:luminance" maskUnits="userSpaceOnUse" x="0" y="0" width="193" height="55">
<path d="M192.835 0H0V55H192.835V0Z" fill="white"/>
</mask>
<g mask="url(#mask0_188_888)">
<path d="M163.767 10.2275C163.767 10.1318 163.729 10.04 163.661 9.97237C163.594 9.90471 163.502 9.8667 163.406 9.8667H162.983C162.936 9.86669 162.889 9.87605 162.845 9.89421C162.802 9.91238 162.762 9.939 162.729 9.97254C162.696 10.006 162.669 10.0458 162.651 10.0896C162.634 10.1334 162.625 10.1802 162.625 10.2275V24.4746C162.625 24.4746 162.963 28.4519 159.545 28.8951H157.812C158.528 28.2905 159.08 27.515 159.416 26.6404C159.752 25.7659 159.862 24.8206 159.736 23.8922C158.943 19.1252 154.48 19.4093 154.48 19.4093H146.287C146.191 19.4093 146.099 19.4473 146.032 19.5149C145.964 19.5826 145.926 19.6744 145.926 19.7701V20.1934C145.926 20.289 145.964 20.3808 146.032 20.4485C146.099 20.5161 146.191 20.5542 146.287 20.5542H154.778C159 21.3468 158.551 24.6252 158.304 26.0655C157.798 28.0542 155.747 28.7274 155.122 28.9064H139.952V19.8155C139.952 19.7683 139.943 19.7214 139.925 19.6777C139.907 19.6339 139.881 19.5941 139.848 19.5606C139.815 19.527 139.775 19.5004 139.731 19.4822C139.688 19.4641 139.641 19.4547 139.594 19.4547H139.17C139.075 19.4547 138.983 19.4927 138.915 19.5604C138.848 19.6281 138.81 19.7198 138.81 19.8155V32.8553L138.741 35.128C138.678 37.2425 137.606 37.3651 137.167 37.4154C137.134 37.4192 137.105 37.4226 137.08 37.4263C136.764 37.4466 136.447 37.4188 136.139 37.3439L135.633 37.2331C135.587 37.2222 135.539 37.2205 135.492 37.2281C135.445 37.2358 135.4 37.2526 135.36 37.2777C135.32 37.3028 135.285 37.3356 135.257 37.3743C135.229 37.4129 135.21 37.4567 135.199 37.503L135.102 37.9121C135.081 38.0051 135.097 38.1028 135.147 38.1841C135.197 38.2654 135.277 38.3239 135.369 38.3468L136.79 38.5371V38.5229C137.084 38.5362 137.379 38.52 137.67 38.4746C140.244 38.1167 139.96 35.2076 139.96 35.2076V30.0882H159.503C159.503 30.0882 164.136 30.0882 163.764 24.6252L163.767 10.2275Z" fill="black"/>
<path d="M167.278 9.875H166.858C166.659 9.875 166.497 10.0365 166.497 10.2358V29.7244C166.497 29.9237 166.659 30.0852 166.858 30.0852H167.278C167.478 30.0852 167.639 29.9237 167.639 29.7244V10.2358C167.639 10.0365 167.478 9.875 167.278 9.875Z" fill="black"/>
<path d="M139.832 16.5645C139.682 16.6651 139.505 16.7187 139.324 16.7187C139.081 16.7187 138.849 16.6223 138.677 16.4508C138.505 16.2792 138.409 16.0465 138.409 15.8039C138.409 15.623 138.463 15.4461 138.563 15.2957C138.664 15.1453 138.807 15.028 138.974 14.9588C139.141 14.8896 139.325 14.8714 139.502 14.9067C139.68 14.942 139.843 15.0292 139.971 15.1571C140.099 15.285 140.186 15.448 140.221 15.6255C140.256 15.8029 140.238 15.9868 140.169 16.154C140.1 16.3212 139.982 16.464 139.832 16.5645Z" fill="black"/>
<path d="M29.946 16.7612C30.1269 16.7612 30.3039 16.7076 30.4543 16.607C30.6048 16.5065 30.722 16.3637 30.7913 16.1965C30.8605 16.0294 30.8786 15.8454 30.8433 15.668C30.808 15.4905 30.7208 15.3275 30.5929 15.1996C30.4649 15.0717 30.3019 14.9845 30.1245 14.9492C29.947 14.9139 29.7632 14.9321 29.5961 15.0013C29.4289 15.0705 29.2859 15.1878 29.1854 15.3382C29.0849 15.4886 29.0312 15.6655 29.0312 15.8464C29.0312 16.089 29.1276 16.3217 29.2992 16.4933C29.4707 16.6648 29.7034 16.7612 29.946 16.7612Z" fill="black"/>
<path d="M59.1961 16.7612C59.377 16.7612 59.5539 16.7076 59.7043 16.607C59.8548 16.5065 59.972 16.3637 60.0413 16.1965C60.1105 16.0294 60.1286 15.8454 60.0933 15.668C60.058 15.4905 59.9709 15.3275 59.843 15.1996C59.715 15.0717 59.552 14.9845 59.3746 14.9492C59.1971 14.9139 59.0132 14.9321 58.846 15.0013C58.6789 15.0705 58.536 15.1878 58.4355 15.3382C58.335 15.4886 58.2813 15.6655 58.2813 15.8464C58.281 15.9667 58.3044 16.0858 58.3502 16.1969C58.3961 16.3081 58.4634 16.4091 58.5484 16.4941C58.6335 16.5791 58.7344 16.6465 58.8456 16.6923C58.9568 16.7382 59.0759 16.7616 59.1961 16.7612Z" fill="black"/>
<path d="M112.481 16.6084C112.33 16.7086 112.153 16.7618 111.972 16.7612C111.729 16.7605 111.497 16.6637 111.327 16.4923C111.156 16.3208 111.06 16.0886 111.06 15.8464C111.06 15.6654 111.113 15.4884 111.214 15.3379C111.315 15.1874 111.458 15.0702 111.625 15.001C111.792 14.9319 111.976 14.9139 112.154 14.9494C112.331 14.985 112.494 15.0724 112.622 15.2006C112.75 15.3288 112.837 15.4921 112.872 15.6697C112.907 15.8474 112.888 16.0314 112.819 16.1985C112.749 16.3656 112.631 16.5082 112.481 16.6084Z" fill="black"/>
<path d="M150.877 16.607C150.727 16.7076 150.55 16.7612 150.369 16.7612C150.127 16.7612 149.894 16.6648 149.722 16.4933C149.551 16.3217 149.454 16.089 149.454 15.8464C149.454 15.6655 149.508 15.4886 149.609 15.3382C149.709 15.1878 149.852 15.0705 150.019 15.0013C150.186 14.9321 150.37 14.9139 150.548 14.9492C150.725 14.9845 150.888 15.0717 151.016 15.1996C151.144 15.3275 151.231 15.4905 151.266 15.668C151.302 15.8454 151.284 16.0294 151.214 16.1965C151.145 16.3637 151.028 16.5065 150.877 16.607Z" fill="black"/>
<path d="M62.2452 16.6084C62.0944 16.7086 61.9172 16.7618 61.7362 16.7612C61.494 16.7605 61.2621 16.6637 61.0912 16.4923C60.9202 16.3208 60.8242 16.0886 60.8242 15.8464C60.8242 15.6654 60.878 15.4884 60.9786 15.3379C61.0792 15.1874 61.2223 15.0702 61.3896 15.001C61.5569 14.9319 61.741 14.9139 61.9185 14.9494C62.096 14.985 62.259 15.0724 62.3869 15.2006C62.5147 15.3288 62.6016 15.4921 62.6365 15.6697C62.6715 15.8474 62.653 16.0314 62.5833 16.1985C62.5137 16.3656 62.396 16.5082 62.2452 16.6084Z" fill="black"/>
<path d="M32.9951 16.6084C32.8443 16.7086 32.6671 16.7618 32.4861 16.7612C32.244 16.7605 32.012 16.6637 31.8411 16.4923C31.6702 16.3208 31.5742 16.0886 31.5742 15.8464C31.5742 15.6654 31.6279 15.4884 31.7285 15.3379C31.8292 15.1874 31.9722 15.0702 32.1395 15.001C32.3068 14.9319 32.4909 14.9139 32.6685 14.9494C32.846 14.985 33.009 15.0724 33.1368 15.2006C33.2646 15.3288 33.3515 15.4921 33.3865 15.6697C33.4215 15.8474 33.4029 16.0314 33.3333 16.1985C33.2636 16.3656 33.1459 16.5082 32.9951 16.6084Z" fill="black"/>
<path d="M68.3524 34.3012C68.5335 34.3018 68.7108 34.2485 68.8616 34.1482C69.0125 34.0479 69.1302 33.9051 69.1998 33.7378C69.2694 33.5705 69.2877 33.3864 69.2525 33.2087C69.2173 33.0309 69.1301 32.8677 69.002 32.7396C68.8739 32.6115 68.7107 32.5243 68.533 32.4891C68.3552 32.4539 68.1711 32.4722 68.0038 32.5418C67.8365 32.6114 67.6937 32.7291 67.5934 32.88C67.4931 33.0309 67.4399 33.2081 67.4404 33.3893C67.4412 33.6309 67.5375 33.8624 67.7084 34.0333C67.8792 34.2041 68.1107 34.3004 68.3524 34.3012Z" fill="black"/>
<path d="M127.273 19.3638H126.852C126.757 19.3638 126.665 19.4019 126.597 19.4695C126.529 19.5372 126.491 19.629 126.491 19.7246V25.5428C126.44 25.969 125.98 28.8099 122.798 28.9519C121.469 28.9519 119.335 28.432 118.918 25.2104V19.7246C118.918 19.629 118.88 19.5372 118.812 19.4695C118.744 19.4019 118.652 19.3638 118.557 19.3638H118.133C118.086 19.3638 118.039 19.3732 117.996 19.3914C117.952 19.4095 117.913 19.4362 117.879 19.4697C117.846 19.5032 117.82 19.543 117.802 19.5868C117.784 19.6305 117.775 19.6774 117.776 19.7246V25.2218C117.614 28.7332 114.682 28.9775 114.682 28.9775H109.114C106.185 28.4576 106.102 25.236 106.102 25.236V19.7246C106.102 19.629 106.064 19.5372 105.997 19.4695C105.929 19.4019 105.837 19.3638 105.741 19.3638H105.321C105.225 19.3638 105.134 19.4019 105.066 19.4695C104.998 19.5372 104.96 19.629 104.96 19.7246V25.2218C104.96 25.2218 105.244 30.0513 109.074 30.0513H114.58C114.58 30.0513 117.383 29.9491 118.423 27.7445L118.5 27.8512C119.322 28.9981 120.108 30.094 122.869 30.094C124.719 30.094 125.798 29.2417 126.278 28.6394H126.463L126.489 28.4491V29.719C126.489 29.8146 126.527 29.9064 126.594 29.9741C126.662 30.0417 126.754 30.0798 126.849 30.0798H127.273C127.368 30.0798 127.46 30.0417 127.528 29.9741C127.595 29.9064 127.633 29.8146 127.633 29.719V19.7246C127.633 19.6773 127.624 19.6303 127.606 19.5866C127.588 19.5428 127.561 19.503 127.528 19.4695C127.494 19.436 127.455 19.4094 127.411 19.3913C127.367 19.3732 127.32 19.3638 127.273 19.3638Z" fill="black"/>
<path fill-rule="evenodd" clip-rule="evenodd" d="M34.9548 20.481C35.5776 21.1032 35.9288 21.9466 35.9318 22.827L35.9432 26.6111C35.9409 27.4919 35.59 28.336 34.9671 28.9589C34.3443 29.5818 33.5002 29.9327 32.6193 29.9349H29.8295C28.9472 29.9349 28.1009 29.585 27.4762 28.9619C26.8515 28.3388 26.4994 27.4934 26.4971 26.6111V22.827C26.4994 21.9449 26.8516 21.0998 27.4764 20.4771C28.1011 19.8545 28.9475 19.5052 29.8295 19.5059H32.6079C33.4883 19.5082 34.332 19.8587 34.9548 20.481ZM34.0472 28.0739C34.5449 27.5756 34.8252 26.9006 34.8267 26.1963V23.2417C34.8244 22.5379 34.5439 21.8636 34.0462 21.366C33.5486 20.8683 32.8742 20.5877 32.1704 20.5855H30.2585C29.5545 20.587 28.8797 20.8673 28.3819 21.3651C27.8841 21.863 27.6038 22.5377 27.6023 23.2417V26.1963C27.6038 26.9006 27.884 27.5756 28.3817 28.0739C28.8795 28.5722 29.5542 28.8531 30.2585 28.8554H32.1704C32.8747 28.8531 33.5495 28.5722 34.0472 28.0739Z" fill="black"/>
<path d="M96.395 9.875H96.8154C97.0147 9.875 97.1762 10.0365 97.1762 10.2358V29.7244C97.1762 29.9237 97.0147 30.0852 96.8154 30.0852H96.395C96.1957 30.0852 96.0342 29.9237 96.0342 29.7244V10.2358C96.0342 10.0365 96.1957 9.875 96.395 9.875Z" fill="black"/>
<path d="M133.145 9.875H132.724C132.525 9.875 132.364 10.0365 132.364 10.2358V29.7244C132.364 29.9237 132.525 30.0852 132.724 30.0852H133.145C133.344 30.0852 133.506 29.9237 133.506 29.7244V10.2358C133.506 10.0365 133.344 9.875 133.145 9.875Z" fill="black"/>
<path d="M125.739 16.497H127.321C127.368 16.497 127.415 16.5064 127.459 16.5246C127.502 16.5427 127.542 16.5694 127.575 16.6029C127.608 16.6364 127.635 16.6762 127.653 16.72C127.67 16.7637 127.679 16.8106 127.679 16.8578V17.2783C127.679 17.3255 127.67 17.3724 127.653 17.4162C127.635 17.4599 127.608 17.4997 127.575 17.5332C127.542 17.5668 127.502 17.5934 127.459 17.6116C127.415 17.6297 127.368 17.6391 127.321 17.6391H122.875C122.779 17.6391 122.688 17.6011 122.62 17.5334C122.552 17.4658 122.514 17.374 122.514 17.2783V16.8578C122.514 16.7622 122.552 16.6704 122.62 16.6027C122.688 16.5351 122.779 16.497 122.875 16.497H124.151V15.497C124.151 14.105 125.71 14.105 125.71 14.105H127.315C127.411 14.105 127.503 14.143 127.57 14.2107C127.638 14.2783 127.676 14.3701 127.676 14.4658V14.8948C127.676 14.942 127.667 14.9888 127.649 15.0324C127.63 15.076 127.604 15.1156 127.57 15.1489C127.537 15.1822 127.497 15.2085 127.453 15.2263C127.409 15.2441 127.363 15.2531 127.315 15.2527H125.977C125.625 15.2641 125.23 15.3607 125.23 15.9289C125.225 15.9999 125.234 16.0713 125.257 16.1387C125.279 16.2062 125.316 16.2683 125.363 16.3214C125.411 16.3744 125.468 16.4173 125.533 16.4475C125.597 16.4777 125.667 16.4946 125.739 16.497Z" fill="black"/>
<path fill-rule="evenodd" clip-rule="evenodd" d="M92.5174 9.87505H92.9379C93.0331 9.87352 93.1251 9.9097 93.1937 9.97568C93.2624 10.0417 93.3021 10.1321 93.3044 10.2273V24.5966C93.3044 27.4517 92.2305 30.1137 88.9748 30.1137C86.1936 30.1137 85.0572 28.1733 85.0572 28.1733H84.8669C84.5629 28.7444 83.4208 30.1137 81.026 30.1137C77.1453 30.1137 76.4209 28.25 76.4209 28.25H76.1112C76.1112 28.25 75.5459 30.1137 72.5743 30.1137C69.6027 30.1137 68.6566 28.0597 68.6566 28.0597H68.3129C68.3129 28.0597 67.2873 30.1137 64.5487 30.1137C63.7635 30.1217 62.9889 29.9324 62.2959 29.5631C61.603 29.1938 61.0139 28.6563 60.5828 28H60.3555C60.3555 28 59.3271 30.1307 56.5118 30.1307C55.7099 30.1383 54.9206 29.9317 54.2254 29.5321C53.5302 29.1326 52.9543 28.5546 52.5572 27.858H52.4237C51.168 30.0654 48.5828 30.0256 48.5828 30.0256H42.6169C41.7737 29.8654 40.9692 29.5442 40.2476 29.0796V35.1563C40.2476 35.1563 40.5316 38.0625 37.9578 38.4205C37.6666 38.4659 37.3715 38.4821 37.0771 38.4688V38.483L35.6566 38.2927C35.6106 38.2817 35.5673 38.2617 35.529 38.2338C35.4908 38.206 35.4585 38.1708 35.4339 38.1304C35.4093 38.09 35.393 38.0451 35.3859 37.9984C35.3788 37.9516 35.381 37.9039 35.3924 37.858L35.489 37.4489C35.4997 37.4026 35.5195 37.359 35.5472 37.3204C35.5749 37.2819 35.61 37.2492 35.6505 37.2244C35.6909 37.1995 35.7359 37.183 35.7828 37.1757C35.8297 37.1684 35.8776 37.1705 35.9237 37.1819L36.4265 37.2898C36.734 37.3647 37.0511 37.3925 37.3669 37.3722C37.392 37.3684 37.4214 37.3651 37.4542 37.3613C37.8937 37.311 38.9654 37.1884 39.0288 35.0739L39.097 32.8012V19.7614C39.097 19.6657 39.135 19.574 39.2027 19.5063C39.2703 19.4386 39.3621 19.4006 39.4578 19.4006H39.8782C39.9739 19.4006 40.0657 19.4386 40.1334 19.5063C40.201 19.574 40.239 19.6657 40.239 19.7614V27.3807C40.5533 27.8204 40.9559 28.1896 41.4212 28.4645C41.8864 28.7395 42.404 28.9141 42.9407 28.9773H48.7987C52.0244 28.2829 51.9632 26.0432 51.8973 23.6308C51.891 23.3981 51.8846 23.1637 51.8811 22.929C51.8413 20.2614 50.3953 19.3523 48.6084 19.125C46.8214 18.8978 45.0146 20.5398 44.5771 20.9887C44.1396 21.4375 44.347 19.733 44.347 19.733L51.5373 12.9148C51.8766 12.8539 52.2228 12.8405 52.5657 12.875C53.2504 12.9887 52.526 13.6364 52.526 13.6364C52.526 13.6364 52.3754 13.7444 48.0345 17.9177C48.1182 17.9202 48.1998 17.9222 48.2797 17.9242C49.3625 17.9507 50.1378 17.9697 51.7646 19.2103C53.5118 20.5427 53.0174 24.5 53.0174 24.5C53.0174 24.5 52.9805 28.9887 56.4038 28.9887C59.8271 28.9887 59.8669 25.3893 59.8669 25.3893V19.7074C59.8669 19.6117 59.9049 19.52 59.9725 19.4523C60.0402 19.3847 60.132 19.3466 60.2277 19.3466H60.6481C60.7438 19.3466 60.8356 19.3847 60.9032 19.4523C60.9709 19.52 61.0089 19.6117 61.0089 19.7074V25.4603C61.0089 25.4603 61.3186 29 64.4379 29C67.5572 29 67.8981 25.6506 67.8981 25.6506V24.4716H67.8924V19.7074C67.8924 19.6117 67.9305 19.52 67.9981 19.4523C68.0658 19.3847 68.1576 19.3466 68.2532 19.3466H68.6765C68.7238 19.3466 68.7706 19.356 68.8142 19.3742C68.8578 19.3923 68.8974 19.4189 68.9307 19.4525C68.9639 19.486 68.9902 19.5258 69.0081 19.5696C69.0259 19.6133 69.0349 19.6602 69.0345 19.7074V24.4716C69.0345 24.4716 68.739 28.9603 72.4663 28.9603C76.1936 28.9603 75.8527 24.625 75.8527 24.625C75.8527 24.625 74.9691 19.375 80.5998 19.375C86.2305 19.375 85.3555 24.3949 85.3555 24.3949C85.3555 24.3949 85.0118 28.9603 88.7049 28.9603C92.5089 28.9603 92.1566 24.5853 92.1566 24.5853V10.2273C92.1589 10.1331 92.1979 10.0435 92.2653 9.97769C92.3327 9.91186 92.4232 9.87502 92.5174 9.87505ZM83.5022 28.1134C83.9999 27.6152 84.2802 26.9401 84.2816 26.2358V23.2955C84.2794 22.5917 83.9988 21.9174 83.5012 21.4197C83.0035 20.9221 82.3292 20.6415 81.6254 20.6393H79.7135C79.0097 20.6415 78.3354 20.9221 77.8377 21.4197C77.34 21.9174 77.0595 22.5917 77.0572 23.2955V26.2358C77.0587 26.9401 77.339 27.6152 77.8367 28.1134C78.3344 28.6117 79.0092 28.8927 79.7135 28.8949H81.6254C82.3297 28.8927 83.0044 28.6117 83.5022 28.1134Z" fill="black"/>
<path fill-rule="evenodd" clip-rule="evenodd" d="M23.523 14.6731C23.5135 14.714 23.5106 14.7563 23.5145 14.7981L23.5315 14.8294H23.1367V14.8038C23.1353 14.7953 23.1353 14.7867 23.1367 14.7782V14.5112C23.1527 14.4084 23.1403 14.3032 23.1008 14.207C23.0612 14.1109 22.996 14.0274 22.9122 13.9657C22.7643 13.9033 22.6036 13.877 22.4435 13.889H22.1196V14.8294H21.6992V12.4402H22.5401C22.7603 12.4293 22.9807 12.4581 23.1906 12.5254C23.3088 12.5735 23.4084 12.6582 23.4749 12.7671C23.5414 12.876 23.5712 13.0034 23.5599 13.1305C23.5669 13.2228 23.5489 13.3152 23.5079 13.3981C23.4669 13.4811 23.4045 13.5515 23.327 13.6021C23.2219 13.6647 23.1047 13.7044 22.9832 13.7186C23.0641 13.7259 23.1425 13.7505 23.2131 13.7907C23.2836 13.8309 23.3448 13.8857 23.3923 13.9515C23.4728 14.0583 23.5184 14.1872 23.523 14.3208V14.6731ZM22.5003 13.5907C22.636 13.5972 22.7717 13.5789 22.9009 13.5367V13.5396C22.9768 13.513 23.0418 13.4621 23.086 13.3949C23.1302 13.3276 23.151 13.2477 23.1452 13.1674C23.1545 13.1004 23.1448 13.0321 23.1172 12.9703C23.0896 12.9085 23.0451 12.8557 22.9889 12.818C22.8281 12.7474 22.6528 12.7162 22.4776 12.7271H22.1196V13.5907H22.5003Z" fill="black"/>
<path fill-rule="evenodd" clip-rule="evenodd" d="M22.5738 11.4715C22.1445 11.4735 21.7254 11.6024 21.3691 11.8417C21.0128 12.0811 20.7351 12.4204 20.5709 12.8171C20.4067 13.2137 20.3634 13.65 20.4463 14.0712C20.5292 14.4924 20.7346 14.8797 21.0368 15.1846C21.2388 15.3873 21.4787 15.5481 21.7429 15.6579C22.0072 15.7676 22.2905 15.8241 22.5766 15.8241C22.8627 15.8241 23.146 15.7676 23.4103 15.6579C23.6745 15.5481 23.9145 15.3873 24.1164 15.1846C24.3222 14.9833 24.4847 14.7422 24.5941 14.476C24.7036 14.2098 24.7575 13.924 24.7527 13.6363C24.7571 13.3506 24.7029 13.0672 24.5934 12.8033C24.484 12.5395 24.3216 12.3008 24.1164 12.1022C23.9152 11.8982 23.6748 11.7372 23.4097 11.6288C23.1445 11.5204 22.8602 11.4669 22.5738 11.4715ZM23.8976 14.9772C23.7242 15.1517 23.5179 15.2902 23.2907 15.3847C23.0635 15.4793 22.8198 15.5279 22.5738 15.5279C22.3277 15.5279 22.084 15.4793 21.8568 15.3847C21.6296 15.2902 21.4234 15.1517 21.2499 14.9772C21.0736 14.8019 20.9346 14.5927 20.8414 14.3622C20.7481 14.1318 20.7025 13.8848 20.7073 13.6363C20.6847 13.378 20.7161 13.1179 20.7994 12.8725C20.8828 12.6271 21.0162 12.4016 21.1913 12.2105C21.3665 12.0194 21.5794 11.8668 21.8167 11.7624C22.0539 11.6581 22.3103 11.6041 22.5695 11.6041C22.8287 11.6041 23.0851 11.6581 23.3223 11.7624C23.5596 11.8668 23.7725 12.0194 23.9477 12.2105C24.1228 12.4016 24.2563 12.6271 24.3396 12.8725C24.4229 13.1179 24.4543 13.378 24.4317 13.6363C24.4381 13.8843 24.3941 14.131 24.3023 14.3615C24.2105 14.592 24.0728 14.8015 23.8976 14.9772Z" fill="black"/>
<path d="M81.8718 54.7954C82.0184 54.8076 82.166 54.7912 82.3064 54.7471C82.4115 54.6846 87.0195 44.5937 87.0195 44.5937C87.0486 44.5361 87.061 44.4715 87.0554 44.4072C87.0498 44.3429 87.0263 44.2814 86.9876 44.2297C86.9489 44.178 86.8966 44.1382 86.8364 44.1147C86.7763 44.0911 86.7108 44.0849 86.6473 44.0966H86.0791C86.0791 44.0966 85.8519 44.0966 85.707 44.4687C85.5621 44.8409 81.8178 53.2187 81.8178 53.2187H81.7354C81.7354 53.2187 77.9769 44.8437 77.832 44.4687C77.6871 44.0937 77.457 44.0966 77.457 44.0966H76.8888C76.8253 44.0853 76.76 44.0919 76.7 44.1155C76.64 44.1391 76.5878 44.1788 76.549 44.2302C76.5101 44.2817 76.4863 44.3429 76.4801 44.407C76.4739 44.4712 76.4856 44.5358 76.5138 44.5937C76.5138 44.5937 81.1246 54.6846 81.2269 54.7471C81.4392 54.7884 81.6557 54.8046 81.8718 54.7954Z" fill="black"/>
<path d="M74.974 41.4431C74.974 41.9483 74.5645 42.3579 74.0592 42.3579C73.554 42.3579 73.1445 41.9483 73.1445 41.4431C73.1445 40.9379 73.554 40.5283 74.0592 40.5283C74.5645 40.5283 74.974 40.9379 74.974 41.4431Z" fill="black"/>
<path d="M115.602 52.841V39.6279C115.602 39.5322 115.64 39.4404 115.708 39.3728C115.776 39.3051 115.867 39.2671 115.963 39.2671H116.386C116.434 39.2671 116.48 39.2764 116.524 39.2946C116.568 39.3128 116.607 39.3394 116.64 39.3729C116.674 39.4065 116.7 39.4463 116.718 39.49C116.736 39.5338 116.745 39.5806 116.744 39.6279V52.841C116.781 54.0143 117.926 53.841 117.926 53.841H118.415C118.51 53.841 118.602 53.879 118.67 53.9466C118.738 54.0143 118.776 54.1061 118.776 54.2018V54.625C118.776 54.6723 118.766 54.7191 118.748 54.7627C118.73 54.8063 118.703 54.8459 118.67 54.8792C118.636 54.9124 118.596 54.9388 118.553 54.9566C118.509 54.9744 118.462 54.9834 118.415 54.983H117.926C117.926 54.983 115.67 55.2387 115.602 52.841Z" fill="black"/>
<path d="M73.7983 44.0566H74.2188C74.418 44.0566 74.5795 44.2181 74.5795 44.4174V54.4713C74.5795 54.6706 74.418 54.8321 74.2188 54.8321H73.7983C73.599 54.8321 73.4375 54.6706 73.4375 54.4713V44.4174C73.4375 44.2181 73.599 44.0566 73.7983 44.0566Z" fill="black"/>
<path d="M72.3322 53.9261C72.3099 53.833 72.2516 53.7526 72.1701 53.7026C72.0886 53.6525 71.9906 53.6368 71.8975 53.659L71.3918 53.767C71.3918 53.767 69.4771 54.3124 68.3322 53.4062C68.0992 53.2187 67.9316 52.838 67.9288 51.5511V45.0568H71.5822C71.6575 45.0568 71.7298 45.0268 71.7831 44.9735C71.8363 44.9203 71.8663 44.848 71.8663 44.7727V44.4488C71.8663 44.3735 71.8363 44.3012 71.7831 44.2479C71.7298 44.1946 71.6575 44.1647 71.5822 44.1647H67.9146V41.4772C67.9146 41.3815 67.8765 41.2897 67.8089 41.2221C67.7412 41.1544 67.6495 41.1164 67.5538 41.1164H67.1333C67.085 41.1149 67.0368 41.1231 66.9918 41.1405C66.9467 41.158 66.9055 41.1843 66.8708 41.218C66.8361 41.2516 66.8085 41.2919 66.7897 41.3365C66.7708 41.381 66.7611 41.4289 66.7612 41.4772V44.1647H64.8719C64.7966 44.1647 64.7243 44.1946 64.6711 44.2479C64.6178 44.3012 64.5879 44.3735 64.5879 44.4488V44.7727C64.5879 44.848 64.6178 44.9203 64.6711 44.9735C64.7243 45.0268 64.7966 45.0568 64.8719 45.0568H66.7612V51.5454C66.7612 51.5454 66.3691 54.0425 68.5822 54.7755C69.2937 54.9165 70.0192 54.9747 70.7441 54.9488V54.963L72.1646 54.7727C72.2576 54.7504 72.338 54.6921 72.3881 54.6106C72.4382 54.5291 72.4538 54.4311 72.4316 54.338L72.3322 53.9261Z" fill="black"/>
<path d="M157.792 53.7024C157.874 53.7524 157.932 53.8328 157.954 53.9259L158.065 54.3407C158.088 54.4337 158.072 54.5318 158.022 54.6133C157.972 54.6948 157.891 54.7531 157.798 54.7753L156.378 54.9656V54.9514C155.653 54.9773 154.927 54.9192 154.216 54.7782C152.006 54.0452 152.395 51.548 152.395 51.548V45.0594H150.506C150.43 45.0594 150.358 45.0295 150.305 44.9762C150.251 44.9229 150.222 44.8507 150.222 44.7753V44.4514C150.222 44.3761 150.251 44.3038 150.305 44.2506C150.358 44.1973 150.43 44.1674 150.506 44.1674H152.395V41.4799C152.395 41.3842 152.433 41.2924 152.501 41.2247C152.568 41.1571 152.66 41.1191 152.756 41.1191H153.176C153.272 41.1191 153.364 41.1571 153.431 41.2247C153.499 41.2924 153.537 41.3842 153.537 41.4799V44.1674H157.207C157.283 44.1674 157.355 44.1973 157.408 44.2506C157.462 44.3038 157.491 44.3761 157.491 44.4514V44.7753C157.491 44.8507 157.462 44.9229 157.408 44.9762C157.355 45.0295 157.283 45.0594 157.207 45.0594H153.554V51.5537C153.554 52.8407 153.722 53.2213 153.954 53.4088C155.114 54.3094 157.014 53.7668 157.014 53.7668L157.52 53.6588C157.613 53.6366 157.711 53.6523 157.792 53.7024Z" fill="black"/>
<path d="M41.0536 43.9715C39.2468 44.1164 38.562 45.1335 38.562 45.1335H38.3148V44.4176C38.3148 44.3702 38.3055 44.3233 38.2874 44.2795C38.2692 44.2357 38.2428 44.1959 38.2093 44.1624C38.1758 44.1289 38.136 44.1024 38.0922 44.0842C38.0484 44.0661 38.0014 44.0568 37.954 44.0568H37.5336C37.4862 44.0568 37.4393 44.0661 37.3955 44.0842C37.3517 44.1024 37.312 44.1289 37.2785 44.1624C37.245 44.1959 37.2185 44.2357 37.2004 44.2795C37.1822 44.3233 37.1729 44.3702 37.1729 44.4176V54.4715C37.1729 54.5189 37.1822 54.5658 37.2004 54.6096C37.2185 54.6534 37.245 54.6931 37.2785 54.7267C37.312 54.7602 37.3517 54.7867 37.3955 54.8049C37.4393 54.823 37.4862 54.8323 37.5336 54.8323H37.954C38.0497 54.8323 38.1416 54.7943 38.2093 54.7267C38.2769 54.659 38.3148 54.5672 38.3148 54.4715V47.7982C38.3543 47.3578 38.4876 46.931 38.7057 46.5464C38.9237 46.1617 39.2214 45.8282 39.579 45.5681C40.3063 44.9999 41.8945 44.9573 42.2979 45.0284C42.5876 45.0821 42.7198 44.7765 42.8255 44.5319C42.8483 44.4793 42.8699 44.4291 42.8915 44.3863C43.0364 44.0965 42.8604 43.8266 41.0536 43.9715Z" fill="black"/>
<path d="M30.8727 53.8695C31.8932 53.9789 32.9254 53.8754 33.9039 53.5655C34.2562 53.39 34.5791 53.161 34.8613 52.8865C35.2015 52.5829 35.5473 52.9137 35.8078 53.1629L35.8158 53.1706C36.0772 53.4206 34.9238 54.1167 34.9238 54.1167C33.9182 54.681 32.7813 54.9691 31.6283 54.9519C29.7477 54.9064 28.7079 54.5257 27.6511 53.5314C26.6905 52.6277 26.7086 51.0247 26.7199 50.0255C26.721 49.9253 26.7221 49.8312 26.7221 49.7445C26.7221 49.6003 26.7176 49.4318 26.7128 49.2467C26.6855 48.21 26.6443 46.6489 27.2903 45.8752C28.0516 44.9632 29.2562 44.0115 31.7732 43.9917C32.862 44.0264 33.9295 44.303 34.8982 44.8013C34.8982 44.8013 35.955 45.449 35.7278 45.7246C35.5005 46.0002 35.1056 46.3382 34.7732 46.0371C34.4408 45.736 33.5942 44.9718 31.3329 44.9718C29.0715 44.9718 27.8925 46.932 27.8698 47.6934C27.8471 48.4547 27.8698 51.2274 27.8698 51.2274C27.8698 51.2274 28.4181 53.8695 30.8727 53.8695Z" fill="black"/>
<path d="M112.409 53.5655C111.43 53.8762 110.396 53.9797 109.375 53.8695C106.92 53.8695 106.372 51.2274 106.372 51.2274C106.372 51.2274 106.349 48.4547 106.372 47.6934C106.395 46.932 107.571 44.9718 109.835 44.9718C112.099 44.9718 112.943 45.736 113.276 46.0371C113.608 46.3382 114.003 46.0002 114.23 45.7246C114.457 45.449 113.401 44.8013 113.401 44.8013C112.432 44.303 111.364 44.0264 110.276 43.9917C107.759 44.0115 106.554 44.9632 105.79 45.8752C105.142 46.6479 105.184 48.206 105.212 49.2426C105.217 49.4291 105.222 49.5994 105.222 49.7445C105.222 49.8297 105.221 49.9221 105.22 50.0203C105.209 51.0191 105.191 52.6262 106.153 53.5314C107.21 54.5257 108.247 54.9064 110.131 54.9519C111.284 54.9691 112.421 54.681 113.426 54.1167C113.426 54.1167 114.577 53.4206 114.318 53.1706C114.06 52.9206 113.705 52.5797 113.364 52.8865C113.083 53.161 112.761 53.3901 112.409 53.5655Z" fill="black"/>
<path fill-rule="evenodd" clip-rule="evenodd" d="M48.4938 43.9917C49.5826 44.0264 50.6501 44.303 51.6188 44.8013C51.6188 44.8013 53.4427 45.8638 53.3376 47.8581C53.3376 49.2104 53.312 49.0598 53.312 49.0598C53.3137 49.1341 53.3 49.208 53.2718 49.2767C53.2436 49.3455 53.2015 49.4077 53.1482 49.4594C53.0948 49.5111 53.0314 49.5513 52.9618 49.5774C52.8922 49.6035 52.818 49.6149 52.7438 49.611C52.3521 49.6276 48.895 49.6199 46.5293 49.6145H46.527H46.5242H46.5204H46.5176L46.4855 49.6144H46.481C45.6426 49.6125 44.9467 49.611 44.5819 49.611V51.2161C44.5819 51.2161 45.133 53.8581 47.5876 53.8581C48.6072 53.9676 49.6384 53.864 50.616 53.5542C50.9707 53.3832 51.2966 53.1579 51.5819 52.8865C51.9228 52.5797 52.2779 52.9206 52.5364 53.1706C52.7949 53.4206 51.6444 54.1167 51.6444 54.1167C50.6384 54.6798 49.5017 54.9679 48.3489 54.9519C46.4654 54.9064 45.4285 54.5257 44.3717 53.5314C43.4095 52.6262 43.4269 51.0191 43.4378 50.0203C43.4388 49.9221 43.4398 49.8297 43.4398 49.7445C43.4398 49.6003 43.4354 49.4319 43.4305 49.2468C43.4032 48.2101 43.3621 46.6489 44.008 45.8752C44.7694 44.9632 45.9768 44.0115 48.4938 43.9917ZM44.579 48.5939H52.1387C52.1387 48.5939 52.241 46.8752 51.5052 46.1394C51.187 45.824 50.3091 44.9718 48.0449 44.9718C45.7807 44.9718 44.6018 46.932 44.579 47.6934V48.5939Z" fill="black"/>
<path fill-rule="evenodd" clip-rule="evenodd" d="M95.9089 44.8013C94.9405 44.3022 93.8728 44.0256 92.7839 43.9917C90.2668 44.0115 89.0594 44.9632 88.2981 45.8752C87.6521 46.6488 87.6933 48.2098 87.7206 49.2464C87.7254 49.4317 87.7299 49.6002 87.7299 49.7445C87.7299 49.831 87.7288 49.9249 87.7277 50.0249C87.7164 51.024 87.6984 52.6275 88.6617 53.5314C89.7214 54.5257 90.7555 54.9064 92.639 54.9519C93.791 54.9686 94.9269 54.6805 95.9316 54.1167C95.9316 54.1167 97.085 53.4206 96.8265 53.1706C96.5679 52.9206 96.2128 52.5797 95.8719 52.8865C95.5866 53.1579 95.2607 53.3832 94.906 53.5542C93.9285 53.864 92.8972 53.9676 91.8776 53.8581C89.4231 53.8581 88.8719 51.2161 88.8719 51.2161V49.611C89.2425 49.611 89.9545 49.6126 90.8104 49.6145H90.8142H90.817H90.8195C93.1851 49.6199 96.6421 49.6276 97.0339 49.611C97.1081 49.6149 97.1823 49.6035 97.2519 49.5774C97.3214 49.5513 97.3849 49.5111 97.4382 49.4594C97.4916 49.4077 97.5336 49.3455 97.5618 49.2767C97.59 49.208 97.6037 49.1341 97.602 49.0598C97.602 49.0598 97.6248 49.2104 97.6248 47.8581C97.727 45.8638 95.9089 44.8013 95.9089 44.8013ZM96.4316 48.5939H88.8719V47.6934C88.8947 46.932 90.0736 44.9718 92.3378 44.9718C94.602 44.9718 95.4799 45.824 95.7981 46.1394C96.5339 46.8752 96.4316 48.5939 96.4316 48.5939Z" fill="black"/>
<path fill-rule="evenodd" clip-rule="evenodd" d="M144.855 43.9917C145.944 44.0256 147.012 44.3022 147.98 44.8013C147.98 44.8013 149.807 45.8638 149.705 47.8553C149.705 49.2076 149.682 49.057 149.682 49.057C149.684 49.1313 149.67 49.2051 149.642 49.2739C149.613 49.3426 149.571 49.4048 149.518 49.4566C149.465 49.5083 149.401 49.5485 149.332 49.5745C149.262 49.6006 149.188 49.6121 149.114 49.6081C148.722 49.6248 145.262 49.617 142.896 49.6117H142.89H142.887C142.033 49.6097 141.322 49.6081 140.952 49.6081V51.2132C140.952 51.2132 141.503 53.8553 143.957 53.8553C144.977 53.9647 146.008 53.8612 146.986 53.5513C147.341 53.3803 147.666 53.1551 147.952 52.8837C148.293 52.5769 148.648 52.9178 148.906 53.1678C149.165 53.4178 148.011 54.1138 148.011 54.1138C147.004 54.6801 145.865 54.9693 144.71 54.9519C142.827 54.9064 141.793 54.5257 140.733 53.5314C139.77 52.6275 139.788 51.024 139.799 50.0249C139.8 49.9249 139.801 49.831 139.801 49.7445C139.801 49.6002 139.797 49.4317 139.792 49.2465C139.765 48.2098 139.723 46.6489 140.369 45.8752C141.131 44.9632 142.338 44.0115 144.855 43.9917ZM140.943 48.5939H148.503C148.503 48.5939 148.605 46.8752 147.869 46.1394C147.551 45.824 146.673 44.9718 144.409 44.9718C142.145 44.9718 140.966 46.932 140.943 47.6934V48.5939Z" fill="black"/>
<path fill-rule="evenodd" clip-rule="evenodd" d="M63.9201 48.1732V47.1221C63.9201 44.9005 61.6474 43.9971 59.8548 43.9601C58.0622 43.9232 56.4912 44.1789 55.9514 44.4005C55.4116 44.6221 55.3093 44.8806 55.5906 45.2215C55.6596 45.317 55.7549 45.3904 55.8648 45.4328C55.9748 45.4752 56.0947 45.4847 56.2099 45.4601L56.8718 45.2613C58.5764 44.8607 59.7127 44.8408 60.8179 45.0795C62.8377 45.6221 62.6787 47.3522 62.6787 47.3522V48.713H62.4798C62.4798 48.713 61.8179 47.6334 59.0537 47.6334C56.2894 47.6334 54.4883 49.338 54.4883 51.4175C54.4883 53.4971 56.2724 54.9005 58.9145 54.9005C61.5565 54.9005 62.4997 53.8096 62.4997 53.8096H62.7099V54.463C62.7113 54.5583 62.7492 54.6494 62.8158 54.7176C62.8824 54.7858 62.9726 54.8258 63.0679 54.8295H63.5167C63.6152 54.8318 63.7107 54.7952 63.7825 54.7277C63.8542 54.6602 63.8965 54.5671 63.9002 54.4687V48.1903C63.9033 48.1867 63.9066 48.1835 63.9102 48.1805C63.9133 48.1778 63.9166 48.1754 63.9201 48.1732ZM59.9968 53.9317H58.3548C58.0056 53.9433 57.6577 53.8845 57.3318 53.7588C57.0058 53.6331 56.7084 53.4432 56.4573 53.2003C56.2063 52.9574 56.0066 52.6665 55.8703 52.3448C55.7339 52.0232 55.6637 51.6774 55.6637 51.328C55.6637 50.9787 55.7339 50.6329 55.8703 50.3113C56.0066 49.9896 56.2063 49.6987 56.4573 49.4558C56.7084 49.2129 57.0058 49.0229 57.3318 48.8973C57.6577 48.7716 58.0056 48.7128 58.3548 48.7243H59.9968C60.6725 48.7467 61.313 49.0308 61.7831 49.5166C62.2531 50.0025 62.5159 50.652 62.5159 51.328C62.5159 52.0041 62.2531 52.6536 61.7831 53.1395C61.313 53.6253 60.6725 53.9094 59.9968 53.9317Z" fill="black"/>
<path fill-rule="evenodd" clip-rule="evenodd" d="M123.057 44.0342H125.105C126.158 44.0401 127.166 44.4611 127.911 45.2057C128.655 45.9503 129.076 46.9584 129.082 48.0114V50.8523C129.077 51.9056 128.656 52.9142 127.912 53.6589C127.167 54.4037 126.158 54.8244 125.105 54.8296H123.057C122.004 54.8244 120.995 54.4037 120.25 53.6589C119.505 52.9142 119.085 51.9056 119.08 50.8523V48.0114C119.085 46.9584 119.506 45.9503 120.251 45.2057C120.996 44.4611 122.004 44.0401 123.057 44.0342ZM126.988 53.0302C127.487 52.5325 127.768 51.8578 127.77 51.1535V47.7273C127.768 47.0231 127.487 46.3483 126.988 45.8506C126.49 45.3528 125.815 45.0726 125.111 45.0711H123.051C122.347 45.0726 121.672 45.3528 121.174 45.8506C120.675 46.3483 120.394 47.0231 120.392 47.7273V51.1535C120.394 51.8578 120.675 52.5325 121.174 53.0302C121.672 53.528 122.347 53.8082 123.051 53.8097H125.111C125.815 53.8082 126.49 53.528 126.988 53.0302Z" fill="black"/>
<path d="M136.841 45.5199C136.019 45.1649 135.136 44.9719 134.241 44.9518C132.878 44.9518 131.364 45.6336 131.401 46.7415C131.437 47.8495 133.213 48.3836 135.429 49.0143C137.645 49.6449 138.71 50.5256 138.733 51.9745C138.756 53.4234 137.54 55.0995 134.341 54.9802C131.142 54.8609 130.057 53.3182 130.057 53.3182C130.057 53.3182 129.716 52.8921 129.972 52.7216C130.227 52.5512 130.739 52.3381 130.952 52.5938C130.959 52.6031 130.968 52.6135 130.977 52.6252L130.983 52.6319C131.243 52.9514 132.145 54.0608 134.491 53.9574C135.514 53.9376 137.602 53.6393 137.602 51.9546C137.602 51.0171 136.111 50.1847 133.895 49.6109C131.679 49.037 130.227 48.054 130.227 46.6904C130.227 45.3268 131.764 43.8495 134.577 43.983C137.389 44.1165 138.241 45.091 138.241 45.091C138.241 45.091 138.582 45.3751 138.349 45.6023C138.249 45.7209 138.125 45.8176 137.986 45.8864C137.986 45.8864 137.815 46.1194 137.241 45.7586L136.841 45.5199Z" fill="black"/>
<path d="M163.142 44.9518C164.037 44.9719 164.92 45.1649 165.741 45.5199L166.156 45.7586C166.73 46.1194 166.901 45.8864 166.901 45.8864C167.04 45.8176 167.164 45.7209 167.264 45.6023C167.497 45.3751 167.156 45.091 167.156 45.091C167.156 45.091 166.304 44.1165 163.491 43.983C160.679 43.8495 159.142 45.3268 159.142 46.6904C159.142 48.054 160.594 49.037 162.81 49.6109C165.026 50.1847 166.517 51.0171 166.517 51.9546C166.517 53.6393 164.415 53.9376 163.392 53.9574C161.046 54.0608 160.143 52.9515 159.883 52.6319C159.872 52.6175 159.861 52.6048 159.852 52.5938C159.639 52.3381 159.128 52.5512 158.872 52.7216C158.616 52.8921 158.957 53.3182 158.957 53.3182C158.957 53.3182 160.043 54.8609 163.241 54.9802C166.44 55.0995 167.656 53.4234 167.633 51.9745C167.611 50.5256 166.545 49.6449 164.33 49.0143C162.114 48.3836 160.338 47.8495 160.301 46.7415C160.264 45.6336 161.778 44.9518 163.142 44.9518Z" fill="black"/>
<path d="M0 0V50.6506H21.0824V48.7386H1.91193V1.91193H190.926V48.7386H171.79V50.6506H192.835V0H0Z" fill="url(#paint0_linear_188_888)"/>
</g>
</g>
<defs>
<linearGradient id="paint0_linear_188_888" x1="0" y1="25.3239" x2="192.835" y2="25.3239" gradientUnits="userSpaceOnUse">
<stop stop-color="#E2CF82"/>
<stop offset="1" stop-color="#BD9E4B"/>
</linearGradient>
<clipPath id="clip0_188_888">
<rect width="193" height="55" fill="white"/>
</clipPath>
</defs>
</svg>
