<?xml version="1.0" encoding="UTF-8"?>
<svg id="Layer_1" data-name="Layer 1" xmlns="http://www.w3.org/2000/svg" viewBox="0 0 1384.839 712.922">
  <defs>
    <style>
      .cls-1 {
        fill: #fff;
        stroke-width: 0px;
      }
    </style>
  </defs>
  <g>
    <path class="cls-1" d="M635.07,388.946c0-198.68,161.064-359.737,359.737-359.737s359.743,161.057,359.743,359.737c0,71.723-20.996,138.537-57.169,194.644,42.489-60.236,67.457-133.715,67.457-213.033C1364.838,166.195,1199.169.524,994.806.524s-370.025,165.671-370.025,370.032c0,79.311,24.967,152.789,67.449,213.026-36.164-56.107-57.161-122.921-57.161-194.636"/>
    <path class="cls-1" d="M1231.202,435.691c3.155-3.112,6.008-4.671,8.411-4.527,1.892.115,3.147,1.306,3.863,2.275,2.102,2.867,2.115,7.415,1.87,10.245-3.826-2.094-10.83-5.891-12.238-6.419-.996-.376-1.581-1.039-1.907-1.574M1262.841,454.765c-.607-2.808-5.336-5.704-8.325-7.285,3.581-18.534.802-29.718-8.318-33.278-1.783-.701-3.646-.845-5.523-.44-4.916,1.047-9.299,5.683-13.306,10.534-6.627,8.028-8.324,15.169-5.516,23.148,2.513,7.154,14.166,12.23,19.321,14.166-4.918,9.422-20.787,32.605-39.06,51.356-11.956,12.267-44.194,46.504-44.525,46.851-.636.679-.671,1.74-.072,2.454.36.44.895.671,1.43.671.346,0,.687-.094.996-.288,2.448-1.559,8.26-5.329,9.069-6.267,4.881-3.711,26.902-23.306,44.504-39.342,16.303-14.838,31.739-45.175,35.226-52.273.166.021.288.029.498.029,2.953.866,7.588,5.574,9.898,8.44h.008c.368.491.946.881,1.487.924,1.712.144,2.462-1.639,2.838-2.499,1.307-2.975-.21-14.982-.628-16.902"/>
    <path class="cls-1" d="M808.18,113.627l7.018-1.205c20.404-3.517,33.212-3.74,38.439-.693.058.36.462.917,1.205,1.646l.216,1.263c-.144,7.068-5.545,18.75-16.209,35.039-2.83,5.062-11.198,11.01-25.096,17.855-10.035,4.815-17.212,8.028-21.508,9.632l-.513-.837c5.415-5.87,19.141-17.313,41.162-34.331,1.755-2.028,2.6-3.227,2.534-3.589-.455-2.635-10.223-2.318-29.298.967-1.683.288-8.671,1.675-20.974,4.166l-1.148-1.285c4.447-15.84,9.069-24.172,13.863-24.995-.144-.837,3.293-2.051,10.311-3.632"/>
    <path class="cls-1" d="M1313.867,387.453l3.248-.08c5.494-.13,8.822,3.264,10.007,10.173l.109,4.548c.331,14.021-10.556,30.115-32.678,48.279l-3.242.73-.014-.65c17.313-19.791,25.898-32.569,25.761-38.353l-.015-.65c-.065-2.6-1.407-4.519-4.043-5.761l-5.848.144c-1.596.037-3.957,1.177-7.076,3.422-.866.015-1.321-.621-1.35-1.921,1.999-13.061,7.047-19.689,15.14-19.884"/>
    <path class="cls-1" d="M763.121,411.233c3.011-.714,6.967,1.574,11.884,6.88.469.477.831,1.271,1.098,2.382l.239,1.004c.231,6.426-.376,9.805-1.82,10.151-2.816.671-6.73-4.809-9.659-5.011-1.466-.101-2.838.881-3.603,2.137-.765,1.257-1.039,2.744-1.257,4.194-1.545,10.332-1.184,20.816-.534,31.205.288,4.614.058,8.793-.953,13.335-.274,1.22-.584,4.13-1.726,4.852-2.145,1.358-3.437-2.859-4.05-4.469-2.217-5.79-5.451-10.786-8.989-15.826-3.4-4.844-7.112-10.239-12.035-13.674l-1.668.397-2.028,2.6-1.502.36c-3.343.794-7.847-1.545-13.509-7.025l-.239-1.004c1.748-7.95,3.474-12.837,5.155-14.649l1.004-.239c11.14-2.657,22.469,8.065,33.984,32.158l.123.506.498-.123c-2.411-31.328.787-48.042,9.589-50.143"/>
    <path class="cls-1" d="M1193.634,119.728c2.657-.736,6.259,1.184,10.809,5.761.434.411.779,1.105,1.055,2.094l.245.888c.405,5.712-.029,8.744-1.307,9.097-2.491.693-6.152-4.072-8.765-4.166-1.314-.043-2.505.88-3.147,2.022-.642,1.141-.837,2.476-.989,3.783-1.055,9.248-.405,18.584.498,27.826.397,4.108.325,7.834-.434,11.92-.202,1.09-.389,3.696-1.386,4.375-1.863,1.278-3.147-2.44-3.747-3.855-2.158-5.09-5.198-9.443-8.513-13.826-3.176-4.209-6.656-8.902-11.148-11.819l-1.481.411-1.725,2.382-1.329.368c-2.953.816-7.047-1.134-12.259-5.841l-.245-.888c1.314-7.141,2.693-11.545,4.144-13.22l.881-.245c9.848-2.715,20.281,6.491,31.299,27.609l.123.44.44-.123c-3.127-27.848-.802-42.851,6.981-44.996"/>
    <path class="cls-1" d="M903.096,206.663c4.671-1.285,10.996,2.079,18.981,10.115.757.722,1.378,1.95,1.855,3.682l.426,1.553c.714,10.043-.043,15.371-2.289,15.984-1.436.397-4.686-1.978-5.798-2.614-3.047-1.718-5.805-3.595-9.291-4.397-9.986-2.296-8.534,18.989-8.563,24.931-.051,10.209.953,20.375,1.559,30.563.563,9.538,1.625,19.927-1.61,29.039-.346.96-.909,3.083-2.043,3.495-2.628.946-5.263-6.52-6.224-8.454-4.209-8.542-9.278-16.657-15.09-24.201-5.401-7.004-11.545-14.931-19.047-19.797l-2.592.722-3.032,4.18-2.332.65c-5.191,1.43-12.376-1.985-21.537-10.252l-.426-1.559c2.303-12.549,4.729-20.289,7.271-23.226l1.559-.426c17.292-4.772,35.616,11.393,54.972,48.489l.21.78.78-.216c-5.494-48.923-1.407-75.269,12.259-79.037"/>
    <path class="cls-1" d="M1107.181,93.079l.708.043c12.043,10.418,18.779,22.208,22.013,34.959,3.176,12.527-2.592,36.995-7.133,41.421l-.469-.029c-.794-.051-1.141-.621-1.076-1.726,1.473-5.733,2.368-10.881,2.664-15.429.96-14.75-6.982-30.714-23.833-47.882.671-2.953,3.04-6.736,7.127-11.358"/>
    <path class="cls-1" d="M1240.193,188.733l-1.602,7.906c-8.563,2.822-174.045,47.616-197.055,57.023l1.761-8.036c10.887-4.534,178.934-51.052,196.896-56.893"/>
    <path class="cls-1" d="M968.447,263.687l-.989,4.895c-5.299,1.74-26.093,7.588-40.331,13.407l1.09-4.967c6.73-2.801,29.119-9.725,40.23-13.335"/>
    <path class="cls-1" d="M974.323,302.836c1.502,4.657,1.278,8.411-.671,11.263-1.949,2.851-4.087,4.455-6.419,4.809-2.448.368-5.617-1.812-9.517-6.556.21,7.35-2.411,11.436-7.841,12.267-3.914.592-7.076-1.87-8.917-5.163-3.871-6.938-5.163-16.794-6.34-24.541-.491-3.221-.288-4.895.592-5.033,1.444-.216,2.672,1.127,3.682,4.036,1.682,4.83,2.635,9.538,3.653,14.513.36,1.79,1.039,3.603,2.382,4.852,2.888,2.686,9.812.787,9.112-3.783-.455-2.997-1.364-6.317-2.707-9.978-1.538-4.079-2.382-6.282-2.542-6.599-.938-3.943-.36-6.072,1.754-6.397,1.22-.187,2.137,1.039,2.773,3.668.31,1.314.931,3.552,1.87,6.701,2.131,3.538,3.748,5.963,4.852,7.263,1.942,2.325,3.9,3.61,5.877,3.877,1.856.288,3.018-.288,3.48-1.726-1.935-2.996-4.866-8.057-8.787-15.184-.389-1.068-.397-2.801-.022-5.191.376-2.382.946-3.632,1.725-3.754,3.112-.484,11.148,17.992,12.008,20.657"/>
    <path class="cls-1" d="M1181.814,230.201c1.834-.195,3.943,1.234,6.325,4.295.224.274.376.744.448,1.423l.051.434c-.317,3.451-.953,5.235-1.921,5.336-.29.029-1.711-.938-4.268-2.91l-1.66-.405c-2.7.288-4.591,7.675-5.667,22.151-1.257,4.636-2.368,7.004-3.336,7.104-.578.064-1.386-1.999-2.425-6.187-3.596-7.039-6.578-11.552-8.939-13.545l-.866.094-1.487,1.191-.866.094c-2.123.231-4.585-1.263-7.372-4.484l-.066-.578c1.705-4.094,3.098-6.592,4.173-7.487l.584-.058c6.664-.722,12.434,5.689,17.321,19.227l.029.296.29-.037c1.125-16.729,4.338-25.378,9.653-25.956"/>
    <path class="cls-1" d="M1174.728,274.495l1.452-.159c6.765,1.127,12.462,4.614,17.105,10.462.022.195.202.52.541.967-.736,6.722-2.896,10.282-6.469,10.671-8.542,3.264-14.159,6.411-16.859,9.437,6.946,15.472,11.249,30.88,12.909,46.237.498,4.636.346,9.978-.469,16.029l-.866.094-.492-1.855-.331-3.04c-1.3-12.072-5.755-29.761-13.357-53.074-.058-.585-.31-1.531-.744-2.851-.96-8.888,2.577-14.982,10.628-18.296l1.834-.635-.029-.296c-.397-.932-1.993-1.689-4.787-2.267-.874.094-2.779,2.353-5.718,6.773-.578.064-.895-.144-.946-.628-.043-11.234,2.151-17.09,6.599-17.566"/>
    <path class="cls-1" d="M858.494,505.535c1.798,5.581,1.538,10.079-.802,13.495-2.339,3.422-4.902,5.342-7.697,5.761-2.931.448-6.73-2.166-11.408-7.855.253,8.816-2.881,13.711-9.393,14.7-4.686.714-8.483-2.238-10.679-6.181-4.65-8.318-6.187-20.122-7.603-29.415-.592-3.855-.346-5.862.714-6.029,1.726-.26,3.192,1.35,4.412,4.844,2.014,5.776,3.155,11.422,4.368,17.379.44,2.152,1.257,4.317,2.867,5.819,3.458,3.219,11.755.938,10.916-4.534-.549-3.589-1.631-7.573-3.248-11.956-1.841-4.889-2.851-7.524-3.04-7.906-1.133-4.729-.434-7.285,2.094-7.668,1.466-.224,2.571,1.242,3.328,4.39.368,1.581,1.119,4.26,2.238,8.028,2.549,4.245,4.491,7.148,5.819,8.715,2.325,2.779,4.671,4.325,7.039,4.642,2.224.346,3.618-.346,4.173-2.065-2.318-3.595-5.827-9.653-10.527-18.201-.477-1.285-.483-3.357-.037-6.216.455-2.859,1.141-4.354,2.072-4.505,3.733-.57,13.364,21.566,14.39,24.757"/>
    <path class="cls-1" d="M1052.731,400.762l-1.602,7.906c-8.563,2.822-35.494,8.252-58.51,17.66l1.769-8.043c10.881-4.527,40.381-11.683,58.345-17.523"/>
    <path class="cls-1" d="M1070.598,443.988l-1.602,7.35c-8.563,2.816-94.467,28.288-119.621,36.909l1.761-7.479c10.887-4.527,101.499-30.938,119.463-36.779"/>
    <path class="cls-1" d="M818.724,456.383c-1.119,2.787-1.928,5.747-2.672,8.758,3.003,6.035,12.8,1.098,14.346-3.293-3.458-2.462-6.938-4.91-11.675-5.465M819.726,438.065c2.043.303.187,4.78.932,6.296.816,1.588,5.205,2.606,7.263,3.668,2.939,1.487,4.642,2.499,6.382,4.476,1.487,6.621,1.076,13.516-2.072,18.152-1.834,2.664-5.704,5.956-8.411,7.184-2.679,1.22-6.498-.123-7.466-.794-2.072-1.436-3.589-3.517-4.123-7.357-1.436-10.202,5.091-24.699,7.495-31.624"/>
    <path class="cls-1" d="M936.953,497.147c3.328-.288,7.047,2.39,11.162,8.043l.108,1.242c.311,3.603-.816,6.707-3.386,9.299l-.621.058c-4.636-3.517-7.227-5.241-7.775-5.191l-3.119.267c-3.328.288-6.65,12.722-9.978,37.299-4.932,12.432-9.451,20.714-13.559,24.837-14.743,13.559-28.533,22.916-41.349,28.072-17.92,7.552-27.429,11.372-28.533,11.465l-.701-.773c2.722-2.476,13.364-9.321,31.941-20.563,18.526-11.79,42.338-31.927,45.558-35.133-.613-7.068-6.115-17.487-16.519-31.248l-3.119.274c.109,1.242-.88,1.956-2.96,2.137-4.325.376-8.549-3.4-11.329-6.317-.317-.333-.642-.701-.75-1.148-.13-.512.043-1.047.202-1.545.866-2.6,1.748-5.235,3.307-7.479,5.364-7.74,14.31-3.003,19.545,2.39,6.339,6.534,10.093,15.523,13.125,23.956l.158,1.87.419-.035c2.824-27.046,8.888-40.973,18.173-41.775"/>
    <path class="cls-1" d="M732.311,302.051c-1.495-.037-6.44.13-14.83.498.282-3.603.072-7.509-.636-11.689l-.181-1.084c9.616,3.429,14.793,7.228,15.501,11.408l.144.866h.001ZM711.741,301.517c-6.65,1.119-11.033.599-13.184-1.567l-.405-2.382c2.396-5.155,4.607-7.906,6.628-8.246l.434-.072c3.321-.556,5.552,2.556,6.701,9.343l-.173,2.924h-.001ZM732.542,286.21c-11.292-9.682-21.826-14.513-31.616-14.497-6.353,1.964-9.112,5.408-8.289,10.303l.08.434c.36,2.174,1.098,4.354,2.209,6.534-1.668,5.928-2.151,10.982-1.452,15.169.975,5.769,6.397,8.873,16.26,9.278-3.011,5.589-13.112,17.256-13.863,18.115-6.628,7.553-18.974,17.14-32.05,28.873l.477.86c13.581-4.44,25.032-11.459,34.331-21.083,1.668-1.191,14.151-18.845,16.665-26.807,8.729-.138,14.526-.152,17.364-.029l-.072-.434c2.888-.484,4.722-6.368,5.494-17.631-.317-1.878-2.166-4.902-5.538-9.083"/>
    <path class="cls-1" d="M1016.551,672.528c-1.17,6.065-12.483,26.62-16.801,30.317-10.78-5.184-19.992-12.209-31.826-16.151-1.705,1.675-10.577,19.863-15.104,25.703-6.592-1.884-30.822-14.201-35.031-19.386,4.657-10.34,9.581-20.014,15.812-29.327,5.819,1.531,26.093,12.592,31.797,15.184,6.195-8.917,8.542-15.415,15.104-25.213,3.075.072,27.747,13.466,36.049,18.872"/>
    <path class="cls-1" d="M969.271,435.283c-1.17,6.064-12.483,26.62-16.801,30.317-10.78-5.184-19.992-12.209-31.826-16.151-1.697,1.675-10.577,19.863-15.104,25.703-6.592-1.884-30.822-14.201-35.031-19.386,4.657-10.34,9.589-20.014,15.812-29.327,5.819,1.531,26.093,12.592,31.797,15.184,6.195-8.917,8.542-15.414,15.104-25.213,3.075.072,27.747,13.466,36.049,18.874"/>
    <path class="cls-1" d="M1096.015,535.181c7.17-9.733,13.639-25.682,16.332-30.816,11.372,6.008,23.415,11.35,33.819,18.664-1.43,5.697-11.358,26.815-15.603,30.793-9.696-6.382-34.547-18.642-34.547-18.642"/>
    <path class="cls-1" d="M1264.508,359.915c-4.383-.491-8.382-1.769-11.942-3.819-.014-.008-.043-.021-.051-.029-.317-.173-1.783-1.148-8.47-6.224,2.397-1.66,5.48-2.643,9.336-2.982,2.129-.195,4.383,1.285,6.816,4.361,2.094,2.628,3.517,5.494,4.311,8.693M1291.46,363.352c-.434-7.415-2.102-14.859-4.289-21.955-2.129-6.932-4.83-13.841-9.451-19.421-4.628-5.581-11.473-9.704-18.721-9.567-11.683.231-20.223,10.663-27.046,20.143-6.584,9.155-13.956,18.137-19.718,27.804-7.841,13.148-14.692,21.241-30.331,25.075-5.134,1.256-10.505,2.079-15.696,1.09-23.241-4.433-33.364-32.743-38.685-52.93-2.433-9.235-5.169-21.032-7.047-31.024-2.325-12.403-4.737-25.234-6.368-35.169-6.195-35.197-15.783-77.571-22.692-105.499-4.447-17.631-10.498-36.143-17.97-55.038-11.726-29.623-16.368-31.768-19.797-31.487-1.602.144-2.91,1.076-3.661,2.628-.115.231-.195.484-.239.744-1.559,10.245-3.032,18.787-4.389,25.386-.051.245-.065.498-.043.751.065.685.144,1.625,9.84,25.668,6.946,16.895,11.675,30.598,14.065,40.742,9.863,40.858,19.818,86.72,26.649,122.697,6.708,35.255,11.387,81.066,36.917,108.48,12.866,13.82,32.93,22.202,51.06,16.916,19.184-5.595,31.392-24.324,39.025-42.8,12.022,9.711,26.274,16.65,41.327,20.114,4.426,1.01,9.155,1.718,13.429.187,5.92-2.123,9.624-8.065,11.574-14.036,2.065-6.303,2.65-12.888,2.26-19.501"/>
    <path class="cls-1" d="M1119.624,443.885c-.802-10.447-6.448-22.722-16.778-36.468-8.888-11.819-13.495-18.714-15.79-22.736,1.689.245,3.495.44,5.43.578,5.646.419,6.317-3.133,6.389-4.223.181-2.542-1.545-5.473-5.537-9.321-10.26-8.83-17.848-15.198-23.87-20.028-1.711-1.804-3.35-1.884-4.44-1.631-2.65.642-3.768,3.762-4.418,6.21-1.783,8.873-3.09,15.862-4,20.988-.202,1.213.101,2.39.831,3.321.779.975,1.993,1.631,3.675,1.979,4.043,14.513,11.761,29.436,22.945,44.375,11.819,15.747,18.555,26.086,20.021,30.707.022.094.087.296-.166.78-1.538,2.874-10.007,7.95-29.197,13.567-11.04,3.235-34.338,8.145-53.06,12.094-15.537,3.278-27.804,5.862-31.386,7.053-.888.303-1.855.599-2.859.909-4.455,1.372-9.517,2.931-12.989,5.819-1.466,1.228-3.487,3.892-7.306,14.339-3.748,10.058-3.855,11.552-3.892,12.245.051,6.274,4.361,11.516,12.808,15.573,2.686,1.3,16.26,6.094,44.013,15.552,19.884,6.874,22.959,10.866,23.428,12.043-1.055,1.068-5.286,4.252-22.115,12.751-17.062,8.664-35.197,16.295-53.927,22.671-30.945,10.541-41.277,14.419-73.334,20.649-11.631,2.26-45.276,7.775-57.103,6.975-30.511-2.057-59.067-24.866-64.156-55.667-2.808-16.981,1.538-33.955,7.596-49.753,3.054-7.971,6.57-15.761,9.992-23.58,2.224-5.091,9.928-16.873,6.512-22.303-.52-.823-1.364-1.35-2.325-1.458-3.314-.368-6.946,9.155-8.411,11.654-3.17,5.401-6.173,10.887-9.003,16.469-10.418,20.49-17.602,41.125-21.4,63.804-5.885,35.002,12.224,67.283,42.706,84.264,12.744,7.104,27.27,10.708,41.769,11.689,19.096,1.3,38.229-1.726,56.93-5.798,31.248-6.808,61.63-16.735,91.167-28.959,40.88-17.039,60.98-34.158,66.164-44.482,6.057-11.92,9.379-21.573,9.869-28.685.563-8.115-.029-13.826-1.804-17.458-2.599-5.335-8.736-9.783-18.259-13.234-10.975-3.848-19.992-6.96-26.678-9.205,12.259-2.946,31.493-7.068,39.92-8.888l3.451-.737c5.415-1.17,11.393-3.293,17.769-6.325,4.036-1.906,7.899-4.021,11.479-6.311,4.505-2.917,8.281-5.885,11.241-8.859,12.96-13.213,19.047-27.646,18.101-42.945"/>
    <path class="cls-1" d="M1250.162,504.331c-1.783-1.184-7.559-4.093-36.938-15.704-17.3-6.816-31.038-13.921-40.952-21.169,3.415-.765,6.101-1.321,8.007-1.654,1.985-.339,6.628-1.148,6.354-4.743-.173-2.195-1.524-4.18-17.436-9.747-14.129-5.105-18.952-7.682-20.52-8.946-7.444-5.942-7.927-5.913-9.075-5.819-.701.058-1.553.512-2,1.047-.975,1.17-1.306,3.011-.555,10.375.757,6.382.931,12.129.512,17.076-.664,7.942-.658,8.057-.628,8.353.08,1.047.779,1.942,1.783,2.267.996.325,2.1.021,2.779-.78.181-.216.346-.303.484-.317.52.072,3.834,1.098,17.769,14.375,13.141,12.563,25.285,21.509,36.172,26.612,14.881,6.469,29.689,12.938,44.389,19.386,7.581,3.517,13.112,8.729,16.389,15.291,0,.303-.333,3.285-12.707,13.393-24.505,19.501-40.613,32.108-47.934,37.501-31.017,24.267-53.009,37.053-65.348,37.999-4.252.339-7.884-1.444-11.148-5.408-3.451-4.166-5.436-9.408-5.914-15.573-.628-8.151.072-18.685,2.086-31.299,2.881-18.144,3.047-20.657,2.982-21.4.043-.773.938-4.65,1.588-7.487,2.376-10.368,2.571-11.212,1.228-12.541-.642-.636-1.617-.909-2.491-.685-.693.173-1.292.621-1.639,1.242-4.859,8.577-13.242,38.1-15.458,54.453-1.928,13.61-2.643,23.082-2.188,28.952,1.068,13.935,5.502,31.818,18.325,39.667,7.567,4.628,16.636,4.794,25.118,3.112,12.504-2.47,27.616-13.213,46.403-26.714,24.938-17.927,52.049-40.916,59.876-48.252,8.123-7.617,12.152-13.942,15.675-22.021,3.581-8.201,6.065-19.949,5.769-28.858-.037-1.177-.101-2.361-.195-3.538-1.321-17.256-8.238-30.187-20.563-38.447"/>
    <path class="cls-1" d="M751.336,355.085c1.921-2.491,4.217-4.924,6.426-7.277.86-.909,1.705-1.804,2.505-2.686l.592-.65c2.816-3.083,5.726-6.274,8.686-8.779,1.364-1.162,2.808-2.217,4.245-3.264,1.725-1.257,3.494-2.542,5.119-4.007,1.378,3.639,2.253,8.014,3.104,12.274.52,2.606,1.055,5.292,1.711,7.849-2.91,3.328-7.921,6.051-12.779,8.7l-1.004.541c-.895.483-1.798.989-2.715,1.502-6.628,3.704-13.466,7.516-21.097,5.459.267-3.299,2.339-5.971,4.519-8.772l.685-.888.003-.003ZM765.956,394.722c13.522-7.335,21.163-13.761,25.4-28.526.202-.708.382-1.452.563-2.203.051-.202.101-.411.152-.621,1.754,9.321,3.776,17.862,7.133,25.804,6.325,15.003,16.938,26.75,29.097,32.231,6.325,2.873,13.495,3.906,20.54,3.906,12.541,0,24.67-3.278,30.808-5.235,11.697-3.733,46.641-22.527,57.522-29.913,2.881-1.964,5.675-4.209,8.376-6.382,5.934-4.78,12.051-9.704,19.703-12.078,1.473,12.555,6.822,22.151,14.931,26.591,7.047,3.884,17.306,3.394,27.443-1.335,11.654-5.408,17.566-10.548,22.613-19.66.426-.78.967-1.553,1.495-2.325.91-1.314,1.849-2.678,2.419-4.167.658-1.726,1.09-3.725,1.509-5.667.253-1.154.498-2.318.794-3.386,3.668-12.975,4.916-30.339,3.176-44.223-3.054-25.067-30.209-124.885-46.438-184.528-1.718-6.317-3.314-12.181-4.737-17.444,2.664,2.129,3.162,2.499,3.495,2.722,1.769.946,3.184,1.3,4.476,1.082.981-.152,1.834-.664,2.396-1.436.701-.96.924-2.195.671-3.769-1.314-8.396-11.018-24.606-29.487-49.313-4.412-7.53-7.047-10.18-9.855-9.754-.831.13-2.793.773-3.162,3.791-2.281,14.7-3.09,23.783-2.462,27.782.389,2.476,1.292,4.412,2.657,5.732,1.458,1.466,2.563,2.635,3.299,3.495l5.595,22.815c1.452,6.195,2.917,12.195,4.397,17.942l51.391,209.561c.816,3.133,1.076,5.148.874,6.707-.202.78-1.949,2.715-11.364,6.96-6.635,3.09-11.697,4.412-16.924,4.426h-.022c-6.224,0-14.122-5.747-14.996-9.812-.563-2.571.181-4.729,1.127-7.466,1.112-3.227,2.375-6.88,1.516-11.769-.231-1.306-1.393-2.238-2.73-2.145-7.956.52-14.635,4.844-20.526,8.664l-1.697,1.09c-3.697,2.318-7.314,4.939-10.816,7.479-2.599,1.892-5.191,3.776-7.804,5.516-12.267,8.195-46.584,26.042-57.463,28.512-.101.021-.202.051-.303.087-5.646,1.495-24.685,6.064-37.378,3.855-16.938-2.946-27.104-16.527-32.657-27.408-4.945-9.552-7.039-20.937-9.256-32.988-1.09-5.942-2.217-12.072-3.725-18.1,4.737-7.133,12.376-24.692,12.888-26.287.463-1.38,1.047-2.635,1.61-3.855,1.538-3.35,3.133-6.816,2.231-11.624-.231-1.228-1.306-2.115-2.556-2.115h-.014c-4.015.029-5.617,2.982-6.195,4.058-.512.888-5.241,7.415-7.184,9.379-1.978,2.043-4.043,3.978-6.101,5.913-.889.837-1.777,1.675-2.657,2.52-.931-2.073-1.827-4.18-2.721-6.282-3.235-7.581-6.578-15.414-11.473-21.595-.44-.541-1.076-.895-1.769-.967-.701-.08-1.393.138-1.927.592-3.697,3.069-4.62,8.873-5.444,13.993l-.166,1.039c-.166.888-.36,1.834-.555,2.816-.96,4.758-2.051,10.159-1.343,14.201.354,2.145,1.495,3.972,2.513,5.589.469.744.938,1.473,1.271,2.238.534,1.134.938,2.217,1.335,3.271.339.888.685,1.804,1.098,2.722-2.209,2.325-4.498,4.642-6.808,6.975-10.064,10.166-20.468,20.686-26.287,34.663-3.871,9.133-5.263,18.078-6.874,28.432-1.682,10.527.376,19.082,5.66,23.479,2.982,2.483,8.39,4.78,17.205,1.646,4.809-1.66,7.372-3.075,10.62-4.873l1.878-1.026h.001Z"/>
    <path class="cls-1" d="M797.72,218.264c-1.17,6.064-12.483,26.62-16.801,30.317-10.786-5.184-19.992-12.209-31.826-16.151-1.705,1.675-10.577,19.863-15.104,25.703-6.592-1.884-30.822-14.201-35.031-19.386,4.657-10.34,9.581-20.014,15.812-29.327,5.819,1.531,26.093,12.592,31.797,15.184,6.195-8.917,8.542-15.414,15.104-25.213,3.075.072,27.747,13.466,36.049,18.874"/>
    <path class="cls-1" d="M1262.161,286.54l-4.361,1.393c-7.357,2.347-13.199-.917-17.523-9.783l-1.95-6.101c-5.992-18.794,2.354-44.829,25.039-78.099l4.087-2.26.274.874c-15.552,33.552-22.093,54.207-19.616,61.962l.274.874c8.736,16.967,20.454.52,23.782-3.747,1.162-.368,2.022.317,2.577,2.065,2.462,18.419-1.732,29.364-12.584,32.822"/>
    <path class="cls-1" d="M723.994,557.7l-3.408,1.09c-5.762,1.834-10.332-.714-13.718-7.653l-1.524-4.772c-4.686-14.707,1.841-35.082,19.594-61.11l3.192-1.769.216.679c-12.166,26.26-17.286,42.417-15.35,48.482l.216.685c6.837,13.277,16.007.405,18.606-2.931.91-.288,1.581.253,2.022,1.617,1.927,14.411-1.357,22.975-9.848,25.682"/>
    <path class="cls-1" d="M684.283,445.504l-2.851.909c-4.815,1.538-8.641-.599-11.473-6.397l-1.271-4c-3.921-12.296,1.538-29.335,16.389-51.111l2.664-1.479.187.57c-10.18,21.963-14.462,35.479-12.845,40.555l.181.57c5.718,11.105,13.386.339,15.566-2.448.759-.245,1.321.202,1.689,1.343,1.61,12.057-1.133,19.22-8.238,21.487"/>
    <path class="cls-1" d="M918.48,182.758l-4.295,1.372c-7.249,2.31-13.01-.903-17.27-9.639l-1.913-6.014c-5.906-18.52,2.318-44.172,24.67-76.958l4.021-2.224.274.86c-15.328,33.06-21.768,53.413-19.335,61.052l.274.859c8.606,16.729,20.151.52,23.436-3.682,1.141-.368,1.985.311,2.534,2.028,2.433,18.152-1.697,28.938-12.397,32.346"/>
    <path class="cls-1" d="M1071.969,707.203l-3.595,1.148c-6.065,1.935-10.881-.751-14.448-8.065l-1.61-5.033c-4.939-15.501,1.942-36.966,20.649-64.395l3.365-1.87.231.722c-12.823,27.667-18.216,44.7-16.18,51.089l.231.722c7.205,13.993,16.866.434,19.61-3.083.96-.311,1.668.26,2.123,1.697,2.036,15.19-1.423,24.216-10.375,27.068"/>
    <path class="cls-1" d="M1045.547,144.7c-6.57,20.873-9.855,34.165-9.855,39.883,0,8.736,2.166,13.104,6.491,13.104,3.248,0,6.73-3.863,10.44-11.595h.463l.808,1.047c-3.011,16.309-7.423,24.462-13.213,24.462h-1.971c-7.545,0-9.227-8.361-9.472-14.289-.787-18.974,5.827-36.468,15.262-52.612h1.048Z"/>
  </g>
  <g>
    <path class="cls-1" d="M207.401,328.948c3.992-1.357,7.003-3.842,9.04-7.466,2.036-3.624,3.054-8.765,3.054-15.437,0-6.173-.917-11.068-2.744-14.686-1.834-3.624-4.541-6.238-8.123-7.841-3.589-1.602-8.108-2.411-13.559-2.411h-9.04v49.883h5.379c6.671,0,12.008-.685,15.992-2.043M225.697,275.123c7.256,6.051,10.881,16.36,10.881,30.923,0,8.896-1.913,16.338-5.733,22.346-3.819,6.014-8.91,10.455-15.27,13.335-6.354,2.881-13.357,4.325-21.003,4.325h-24.685v-80.004h25.27c13.104,0,23.284,3.025,30.54,9.075"/>
    <path class="cls-1" d="M268.756,343.27c-4.918-3.003-8.483-7.076-10.706-12.224-2.224-5.14-3.336-11.004-3.336-17.588v-47.413h16.151v45.313c0,6.909,1.321,12.282,3.964,16.108,2.65,3.826,7.256,5.74,13.826,5.74,6.253,0,10.663-1.913,13.228-5.74,2.563-3.826,3.848-8.779,3.848-14.873v-46.547h16.144v47.039c0,8.151-1.481,14.801-4.44,19.941-2.968,5.14-7.004,8.888-12.115,11.234-5.105,2.347-11.017,3.517-17.726,3.517-7.646,0-13.919-1.502-18.837-4.505"/>
    <path class="cls-1" d="M382.309,329.198c2.065-1.856,3.098-4.34,3.098-7.473,0-3.04-1.068-5.473-3.213-7.277-2.152-1.812-5.408-2.722-9.776-2.722h-12.397v20.252h11.92c4.844,0,8.303-.932,10.368-2.779M360.021,279.878v18.642h9.342c8.664,0,13.004-3.248,13.004-9.754,0-2.881-.967-5.083-2.896-6.607-1.935-1.524-4.751-2.281-8.454-2.281h-10.996,0ZM395.999,308.209c2.224,1.935,3.863,4.137,4.918,6.607s1.573,5.062,1.573,7.775c0,7.495-2.491,13.271-7.487,17.35-4.988,4.072-12.129,6.109-21.408,6.109h-29.724v-79.998h27.732c6.008,0,11.097.88,15.271,2.65,4.173,1.769,7.314,4.239,9.422,7.407,2.1,3.17,3.155,6.895,3.155,11.177,0,3.538-.975,6.808-2.925,9.812-1.95,3.003-4.873,5.292-8.773,6.852,3.271.909,6.021,2.325,8.246,4.26"/>
    <path class="cls-1" d="M441.457,312.842h19.184l-9.711-30.497-9.472,30.497ZM461.58,266.049l27.262,79.009v.989h-17.667l-6.086-19.133h-28.079l-5.971,19.133h-17.43v-.989l27.262-79.009h20.709Z"/>
    <rect class="cls-1" x="506.162" y="266.049" width="16.144" height="79.998"/>
  </g>
  <g>
    <polygon class="cls-1" points="70.663 395.648 36.145 395.648 36.145 415.647 65.985 415.647 64.079 429.718 36.145 429.718 36.145 461.451 20 461.451 20 381.453 70.663 381.453 70.663 395.648"/>
    <rect class="cls-1" x="89.502" y="381.453" width="16.144" height="79.998"/>
    <path class="cls-1" d="M196.679,381.45v79.998h-18.021l-23.833-37.285c-2.036-3.285-3.762-6.152-5.169-8.577s-2.772-5.163-4.108-8.209v54.071h-16.144v-79.998h17.783l25.949,40.988c.31.491,1.018,1.625,2.115,3.394,1.098,1.769,2.094,3.437,2.989,5.004.903,1.559,1.668,3.083,2.296,4.564v-53.948h16.144Z"/>
    <path class="cls-1" d="M241.261,428.243h19.184l-9.711-30.497-9.472,30.497h0ZM261.384,381.45l27.262,79.015v.981h-17.667l-6.086-19.133h-28.079l-5.971,19.133h-17.43v-.981l27.262-79.015h20.709Z"/>
    <g>
      <path class="cls-1" d="M372.77,381.45v79.998h-18.014l-23.841-37.285c-2.036-3.285-3.762-6.152-5.169-8.577-1.407-2.425-2.772-5.163-4.108-8.209v54.071h-16.144v-79.998h17.783l25.949,40.988c.31.491,1.018,1.625,2.115,3.394s2.094,3.437,2.989,5.004c.903,1.559,1.668,3.083,2.296,4.564v-53.948h16.144,0Z"/>
      <path class="cls-1" d="M401.261,452.006c-5.891-7.452-8.838-17.43-8.838-29.942,0-10.122,1.639-18.331,4.916-24.627,3.278-6.296,7.625-10.823,13.047-13.581,5.422-2.758,11.523-4.137,18.31-4.137,4.758,0,9.126.599,13.104,1.79,3.978,1.199,7.956,3.025,11.934,5.494l-6.23,12.967c-5.568-3.791-11.611-5.683-18.115-5.683-13.256,0-19.876,8.931-19.876,26.793,0,8.888,1.841,15.638,5.523,20.244,3.69,4.607,8.902,6.917,15.646,6.917,3.451,0,6.469-.477,9.054-1.423s5.292-2.281,8.115-4.015l6.469,12.346c-4.209,2.635-8.325,4.628-12.339,5.985-4.021,1.357-8.289,2.036-12.816,2.036-12.714,0-22.013-3.718-27.905-11.169"/>
    </g>
    <polygon class="cls-1" points="487.202 447.129 522.306 447.129 522.306 461.453 471.057 461.453 471.057 381.449 521.72 381.449 521.72 395.651 487.202 395.651 487.202 413.672 517.035 413.672 515.136 427.743 487.202 427.743 487.202 447.129"/>
  </g>
</svg>