<svg width="160" height="40" viewBox="0 0 160 40" fill="none" xmlns="http://www.w3.org/2000/svg">
<path d="M19.9 0C15.9642 0 12.1167 1.16711 8.84416 3.35375C5.57162 5.54039 3.02099 8.64835 1.51481 12.2846C0.00862241 15.9208 -0.385464 19.9221 0.382382 23.7823C1.15023 27.6425 3.04552 31.1884 5.82858 33.9714C8.61165 36.7545 12.1575 38.6498 16.0177 39.4176C19.8779 40.1855 23.8792 39.7914 27.5154 38.2852C31.1517 36.779 34.2596 34.2284 36.4463 30.9558C38.6329 27.6833 39.8 23.8358 39.8 19.9C39.8 14.6222 37.7034 9.56055 33.9714 5.82858C30.2395 2.0966 25.1778 0 19.9 0ZM1.92301 19.9C1.9234 16.3438 2.97833 12.8677 4.95437 9.91108C6.93041 6.95448 9.73881 4.65025 13.0244 3.28979C16.3101 1.92932 19.9253 1.57371 23.4131 2.26794C26.9008 2.96218 30.1043 4.67506 32.6186 7.18999C35.1328 9.70492 36.8448 12.9089 37.538 16.3969C38.2313 19.8848 37.8747 23.4999 36.5133 26.7852C35.1519 30.0704 32.8469 32.8782 29.8898 34.8534C26.9326 36.8286 23.4562 37.8826 19.9 37.882C15.1316 37.8812 10.5588 35.9863 7.18746 32.614C3.81615 29.2418 1.92248 24.6684 1.92301 19.9Z" fill="black"/>
<path d="M29.3099 8.81987C29.223 8.81979 29.1394 8.8535 29.0769 8.91387L19.8839 18.0999L10.6939 8.91787C10.6633 8.88647 10.6268 8.86146 10.5864 8.84429C10.5461 8.82713 10.5027 8.81815 10.4589 8.81787H9.16889C9.0811 8.81787 8.99691 8.85274 8.93484 8.91482C8.87276 8.97689 8.83789 9.06109 8.83789 9.14887V30.6489C8.83789 30.7367 8.87276 30.8209 8.93484 30.8829C8.99691 30.945 9.0811 30.9799 9.16889 30.9799H10.3949C10.4827 30.9799 10.5669 30.945 10.6289 30.8829C10.691 30.8209 10.7259 30.7367 10.7259 30.6489V11.6039L18.5549 19.4309L16.2409 21.7439C17.8009 21.7439 18.8639 21.7809 19.8849 20.7609C20.9049 21.7829 21.9679 21.7439 23.5269 21.7439L21.2119 19.4309L29.0429 11.5949V30.6549C29.0429 30.6983 29.0515 30.7414 29.0681 30.7815C29.0847 30.8217 29.1091 30.8582 29.1398 30.8889C29.1706 30.9197 29.2071 30.944 29.2472 30.9607C29.2874 30.9773 29.3304 30.9859 29.3739 30.9859H30.6279C30.7157 30.9859 30.7999 30.951 30.8619 30.8889C30.924 30.8268 30.9589 30.7427 30.9589 30.6549V9.15487C30.9589 9.06708 30.924 8.98289 30.8619 8.92082C30.7999 8.85874 30.7157 8.82387 30.6279 8.82387L29.3099 8.81987ZM18.6399 23.1859C18.6399 23.4359 18.714 23.6802 18.8529 23.8881C18.9918 24.096 19.1892 24.258 19.4202 24.3537C19.6511 24.4493 19.9053 24.4744 20.1505 24.4256C20.3957 24.3768 20.6209 24.2564 20.7977 24.0797C20.9744 23.9029 21.0948 23.6777 21.1436 23.4325C21.1924 23.1873 21.1673 22.9331 21.0717 22.7022C20.976 22.4712 20.814 22.2738 20.6061 22.1349C20.3983 21.996 20.1539 21.9219 19.9039 21.9219C19.7379 21.9219 19.5735 21.9546 19.4202 22.0181C19.2668 22.0816 19.1275 22.1747 19.0101 22.2921C18.8927 22.4095 18.7996 22.5488 18.7361 22.7022C18.6726 22.8555 18.6399 23.0199 18.6399 23.1859Z" fill="black"/>
<path d="M66.6084 6.731H65.6584C65.6267 6.73092 65.5954 6.73862 65.5674 6.75344C65.5393 6.76826 65.5153 6.78974 65.4974 6.816L60.2044 14.616L54.9114 6.816C54.8936 6.78974 54.8696 6.76826 54.8415 6.75344C54.8135 6.73862 54.7822 6.73092 54.7504 6.731H53.8004C53.749 6.731 53.6997 6.75144 53.6633 6.78782C53.6269 6.8242 53.6064 6.87355 53.6064 6.925V20.513C53.6064 20.5645 53.6269 20.6138 53.6633 20.6502C53.6997 20.6866 53.749 20.707 53.8004 20.707H54.7715C54.8229 20.707 54.8722 20.6866 54.9086 20.6502C54.945 20.6138 54.9655 20.5645 54.9655 20.513V9.336L59.9884 16.644C60.0068 16.6695 60.031 16.6904 60.059 16.7048C60.087 16.7192 60.118 16.7268 60.1494 16.727H60.2274C60.2589 16.7268 60.2899 16.7192 60.3179 16.7048C60.3458 16.6904 60.37 16.6695 60.3884 16.644L65.4055 9.336V20.511C65.4055 20.5625 65.4259 20.6118 65.4622 20.6482C65.4986 20.6846 65.548 20.705 65.5994 20.705H66.6084C66.6599 20.705 66.7092 20.6846 66.7456 20.6482C66.782 20.6118 66.8024 20.5625 66.8024 20.511V6.921C66.8019 6.8699 66.7812 6.82106 66.7449 6.78511C66.7086 6.74916 66.6595 6.729 66.6084 6.729" fill="black"/>
<path d="M80.5121 15.6008H73.9531L77.2421 8.40083L80.5121 15.6008ZM77.9241 6.74484C77.9087 6.71108 77.8839 6.68247 77.8527 6.66243C77.8215 6.64239 77.7852 6.63177 77.7481 6.63184H76.7781C76.741 6.63177 76.7047 6.64239 76.6735 6.66243C76.6422 6.68247 76.6175 6.71108 76.6021 6.74484L70.2741 20.4288C70.2608 20.4587 70.2551 20.4914 70.2573 20.524C70.2596 20.5566 70.2698 20.5881 70.2871 20.6158C70.3047 20.6431 70.3288 20.6656 70.3573 20.6811C70.3857 20.6967 70.4177 20.7048 70.4501 20.7048H71.4981C71.5356 20.7048 71.5722 20.6939 71.6036 20.6735C71.635 20.6531 71.6598 20.624 71.6751 20.5898L73.3501 16.8998H81.1121L82.7871 20.5898C82.8029 20.6236 82.8279 20.6523 82.8592 20.6726C82.8905 20.6929 82.9268 20.7041 82.9641 20.7048H84.0691C84.1016 20.7051 84.1336 20.6971 84.1621 20.6815C84.1907 20.6659 84.2147 20.6433 84.2321 20.6158C84.2494 20.5881 84.2596 20.5566 84.2619 20.524C84.2641 20.4914 84.2584 20.4587 84.2451 20.4288L77.9241 6.74484Z" fill="black"/>
<path d="M96.9036 19.3871H89.1206V6.92105C89.1206 6.8696 89.1002 6.82026 89.0638 6.78387C89.0274 6.74749 88.9781 6.72705 88.9266 6.72705H87.9176C87.8662 6.72705 87.8168 6.74749 87.7805 6.78387C87.7441 6.82026 87.7236 6.8696 87.7236 6.92105V20.5131C87.7236 20.5645 87.7441 20.6138 87.7805 20.6502C87.8168 20.6866 87.8662 20.7071 87.9176 20.7071H96.9036C96.9551 20.7071 97.0044 20.6866 97.0408 20.6502C97.0772 20.6138 97.0976 20.5645 97.0976 20.5131V19.5811C97.0976 19.5296 97.0772 19.4803 97.0408 19.4439C97.0044 19.4075 96.9551 19.3871 96.9036 19.3871Z" fill="black"/>
<path d="M109.941 15.6008H103.382L106.671 8.40083L109.941 15.6008ZM107.351 6.74483C107.335 6.71115 107.311 6.68261 107.279 6.66259C107.248 6.64256 107.212 6.63189 107.175 6.63184H106.204C106.167 6.63196 106.131 6.64267 106.1 6.6627C106.069 6.68273 106.044 6.71123 106.029 6.74483L99.7009 20.4288C99.6876 20.4587 99.6818 20.4914 99.6841 20.524C99.6863 20.5566 99.6966 20.5881 99.7139 20.6158C99.7314 20.6431 99.7555 20.6656 99.784 20.6811C99.8125 20.6967 99.8444 20.7048 99.8769 20.7048H100.925C100.962 20.7041 100.998 20.6929 101.03 20.6726C101.061 20.6523 101.086 20.6236 101.102 20.5898L102.777 16.8998H110.543L112.218 20.5898C112.234 20.6236 112.259 20.6523 112.29 20.6726C112.321 20.6929 112.358 20.7041 112.395 20.7048H113.5C113.533 20.7051 113.565 20.6972 113.593 20.6817C113.622 20.6662 113.647 20.6437 113.664 20.6163C113.682 20.5888 113.693 20.5574 113.695 20.5248C113.697 20.4922 113.691 20.4595 113.678 20.4298L107.351 6.74483Z" fill="black"/>
<path d="M122.841 12.9999H118.552V8.05093H122.938C124.944 8.05093 126.138 8.91393 126.138 10.3619V10.4009C126.138 12.0009 124.875 13.0009 122.839 13.0009M123.286 19.3879H118.549V14.3209H122.956C125.498 14.3209 126.896 15.1899 126.896 16.7669V16.8059C126.896 18.3979 125.511 19.3879 123.286 19.3879ZM125.599 13.4869C126.198 13.2031 126.702 12.7511 127.049 12.186C127.397 11.6209 127.572 10.967 127.555 10.3039V10.2649C127.555 8.11893 125.748 6.73193 122.954 6.73193H117.341C117.289 6.73193 117.24 6.75238 117.203 6.78876C117.167 6.82514 117.146 6.87448 117.146 6.92593V20.5129C117.146 20.5644 117.167 20.6137 117.203 20.6501C117.24 20.6865 117.289 20.7069 117.341 20.7069H123.24C126.318 20.7069 128.305 19.1759 128.305 16.8069V16.7679C128.305 15.2129 127.37 14.0859 125.591 13.4869" fill="black"/>
<path d="M141.087 15.6008H134.528L137.817 8.40083L141.087 15.6008ZM138.499 6.74483C138.483 6.71115 138.459 6.68261 138.427 6.66259C138.396 6.64256 138.36 6.63189 138.323 6.63184H137.353C137.316 6.63189 137.279 6.64256 137.248 6.66259C137.217 6.68261 137.192 6.71115 137.177 6.74483L130.849 20.4308C130.835 20.4603 130.829 20.4927 130.832 20.525C130.834 20.5574 130.844 20.5886 130.861 20.616C130.879 20.6433 130.903 20.6659 130.931 20.6816C130.96 20.6973 130.991 20.7056 131.024 20.7058H132.072C132.109 20.7053 132.146 20.6942 132.177 20.6738C132.209 20.6535 132.234 20.6248 132.25 20.5908L133.925 16.9008H141.691L143.366 20.5908C143.382 20.6246 143.407 20.6533 143.438 20.6736C143.469 20.6939 143.506 20.7051 143.543 20.7058H144.648C144.68 20.706 144.712 20.6979 144.741 20.6823C144.77 20.6668 144.794 20.6442 144.812 20.6168C144.829 20.5894 144.84 20.558 144.842 20.5255C144.844 20.493 144.838 20.4604 144.825 20.4308L138.499 6.74483Z" fill="black"/>
<path d="M149.694 8.05093H154.138C156.46 8.05093 157.845 9.08794 157.845 10.8259V10.8649C157.845 12.6339 156.366 13.7769 154.079 13.7769H149.692V8.05093H149.694ZM159.706 20.3939L155.423 14.8499C157.823 14.4169 159.242 12.9329 159.242 10.8269V10.7879C159.242 8.36293 157.214 6.73193 154.195 6.73193H148.488C148.437 6.73193 148.387 6.75238 148.351 6.78876C148.314 6.82514 148.294 6.87448 148.294 6.92593V20.5129C148.294 20.5644 148.314 20.6137 148.351 20.6501C148.387 20.6865 148.437 20.7069 148.488 20.7069H149.497C149.548 20.7069 149.598 20.6865 149.634 20.6501C149.671 20.6137 149.691 20.5644 149.691 20.5129V15.0799H153.847L158.117 20.6329C158.135 20.6562 158.159 20.6752 158.185 20.6883C158.212 20.7015 158.241 20.7085 158.271 20.7089H159.552C159.587 20.707 159.622 20.6955 159.652 20.6758C159.681 20.6561 159.705 20.6289 159.721 20.5969C159.736 20.5648 159.743 20.5293 159.74 20.4938C159.737 20.4583 159.725 20.4241 159.705 20.3949" fill="black"/>
<path d="M60.0352 29.1701H57.1682C57.1417 29.1701 57.1163 29.1806 57.0975 29.1993C57.0787 29.2181 57.0682 29.2435 57.0682 29.27V29.7541C57.0682 29.7806 57.0787 29.806 57.0975 29.8248C57.1163 29.8435 57.1417 29.854 57.1682 29.854H59.4332V31.7411C58.8183 32.2237 58.061 32.4895 57.2792 32.4971C56.8769 32.5095 56.4766 32.4367 56.1044 32.2834C55.7322 32.1302 55.3967 31.9 55.1198 31.6079C54.8429 31.3158 54.631 30.9684 54.4978 30.5886C54.3647 30.2088 54.3133 29.8051 54.3472 29.404V29.384C54.3278 28.9969 54.3856 28.6097 54.5175 28.2451C54.6493 27.8805 54.8525 27.5459 55.1152 27.2608C55.3778 26.9756 55.6946 26.7456 56.0471 26.5843C56.3996 26.4229 56.7807 26.3335 57.1682 26.3211C57.9838 26.2949 58.7768 26.5913 59.3752 27.1461C59.3946 27.1627 59.4197 27.1713 59.4452 27.1701C59.471 27.1681 59.495 27.1563 59.5122 27.1371L59.8562 26.7431C59.8734 26.7231 59.882 26.6973 59.8802 26.671C59.8778 26.645 59.8652 26.6209 59.8452 26.604C59.1173 25.961 58.1709 25.6211 57.2002 25.654C56.717 25.6607 56.24 25.7635 55.7969 25.9564C55.3538 26.1493 54.9536 26.4284 54.6194 26.7775C54.2853 27.1266 54.024 27.5387 53.8507 27.9898C53.6775 28.441 53.5957 28.922 53.6102 29.4051V29.425C53.5822 29.9155 53.6569 30.4065 53.8294 30.8665C54.0019 31.3265 54.2685 31.7454 54.6121 32.0965C54.9557 32.4477 55.3687 32.7233 55.8249 32.9057C56.281 33.0881 56.7703 33.1734 57.2612 33.156C58.3079 33.1478 59.3165 32.7626 60.1022 32.0711C60.1123 32.0619 60.1205 32.0508 60.1262 32.0385C60.1318 32.0261 60.1349 32.0127 60.1352 31.9991V29.272C60.1352 29.2455 60.1247 29.2201 60.1059 29.2013C60.0872 29.1826 60.0617 29.1721 60.0352 29.1721" fill="black"/>
<path d="M65.6837 32.482C65.2883 32.4752 64.8982 32.3896 64.5362 32.2303C64.1743 32.0709 63.8478 31.8409 63.5758 31.5539C63.3038 31.2668 63.0918 30.9283 62.9522 30.5583C62.8125 30.1883 62.7481 29.7942 62.7627 29.399V29.379C62.7435 28.9854 62.8042 28.5919 62.9411 28.2224C63.078 27.8529 63.2882 27.5148 63.5591 27.2287C63.83 26.9425 64.1561 26.7141 64.5176 26.5573C64.8791 26.4004 65.2686 26.3183 65.6627 26.316C66.0582 26.3227 66.4484 26.4084 66.8104 26.5678C67.1724 26.7272 67.4989 26.9572 67.7709 27.2444C68.043 27.5316 68.255 27.8702 68.3945 28.2403C68.5341 28.6104 68.5984 29.0047 68.5837 29.4V29.42C68.6026 29.8135 68.5417 30.2068 68.4047 30.5762C68.2677 30.9456 68.0575 31.2836 67.7866 31.5697C67.5158 31.8558 67.1898 32.0842 66.8284 32.2411C66.4671 32.3981 66.0777 32.4803 65.6837 32.483M65.6837 25.647C65.1958 25.6485 64.713 25.7472 64.2637 25.9373C63.8143 26.1275 63.4074 26.4053 63.0667 26.7545C62.7259 27.1038 62.4582 27.5174 62.2791 27.9713C62.1 28.4251 62.0132 28.9102 62.0237 29.398V29.418C62.0066 29.9048 62.0884 30.3901 62.2642 30.8445C62.4399 31.2989 62.7059 31.7129 63.0461 32.0616C63.3863 32.4103 63.7936 32.6865 64.2435 32.8734C64.6934 33.0602 65.1765 33.154 65.6637 33.149C66.1494 33.1474 66.63 33.0496 67.0776 32.861C67.5252 32.6725 67.9309 32.397 68.2713 32.0505C68.6117 31.7041 68.88 31.2935 69.0607 30.8427C69.2413 30.3918 69.3307 29.9096 69.3237 29.424C69.3331 29.4002 69.3331 29.3737 69.3237 29.35C69.3372 28.8655 69.2527 28.3832 69.0753 27.9322C68.8979 27.4811 68.6313 27.0705 68.2914 26.725C67.9515 26.3795 67.5453 26.1062 67.0972 25.9215C66.6491 25.7367 66.1683 25.6444 65.6837 25.65" fill="black"/>
<path d="M76.1891 32.3511H72.1371V25.8661C72.1371 25.8396 72.1266 25.8141 72.1078 25.7954C72.0891 25.7766 72.0636 25.7661 72.0371 25.7661H71.5121C71.499 25.7661 71.486 25.7687 71.4738 25.7737C71.4617 25.7788 71.4507 25.7861 71.4414 25.7954C71.4321 25.8047 71.4247 25.8157 71.4197 25.8279C71.4147 25.84 71.4121 25.853 71.4121 25.8661V32.9331C71.4121 32.9462 71.4147 32.9592 71.4197 32.9714C71.4247 32.9835 71.4321 32.9945 71.4414 33.0038C71.4507 33.0131 71.4617 33.0205 71.4738 33.0255C71.486 33.0305 71.499 33.0331 71.5121 33.0331H76.1891C76.2156 33.0331 76.2411 33.0226 76.2598 33.0038C76.2786 32.9851 76.2891 32.9596 76.2891 32.9331V32.4491C76.29 32.4358 76.288 32.4224 76.2833 32.4098C76.2786 32.3973 76.2712 32.3859 76.2618 32.3764C76.2523 32.367 76.2409 32.3596 76.2284 32.3549C76.2159 32.3502 76.2025 32.3482 76.1891 32.3491" fill="black"/>
<path d="M80.6249 32.3512H78.8949V26.4512H80.6249C81.0264 26.427 81.4287 26.4855 81.8066 26.6231C82.1846 26.7608 82.5303 26.9746 82.8222 27.2514C83.1141 27.5282 83.346 27.8621 83.5035 28.2322C83.661 28.6024 83.7408 29.0009 83.7379 29.4032V29.4232C83.7434 29.8253 83.6652 30.2242 83.5083 30.5945C83.3514 30.9648 83.1192 31.2984 82.8264 31.5741C82.5337 31.8499 82.1868 32.0617 81.8078 32.1962C81.4288 32.3306 81.0259 32.3848 80.6249 32.3552M80.6249 25.7722H78.2719C78.2453 25.7722 78.2199 25.7828 78.2011 25.8015C78.1824 25.8203 78.1719 25.8457 78.1719 25.8722V32.9392C78.1719 32.9657 78.1824 32.9912 78.2011 33.0099C78.2199 33.0287 78.2453 33.0392 78.2719 33.0392H80.6239C81.1193 33.0707 81.6159 33.0001 82.0829 32.8317C82.55 32.6633 82.9774 32.4007 83.3387 32.0602C83.6999 31.7197 83.9874 31.3086 84.1832 30.8524C84.379 30.3962 84.479 29.9047 84.4769 29.4082V29.3782C84.478 28.8831 84.3772 28.393 84.1809 27.9384C83.9847 27.4839 83.697 27.0745 83.3359 26.7358C82.9747 26.3971 82.5478 26.1362 82.0816 25.9694C81.6154 25.8026 81.1199 25.7335 80.6259 25.7662" fill="black"/>
<path d="M91.0145 32.4822C90.8164 32.4969 90.6174 32.4707 90.4299 32.4053C90.2423 32.3399 90.0702 32.2367 89.9241 32.1021C89.778 31.9675 89.6612 31.8043 89.5807 31.6227C89.5003 31.4411 89.4581 31.2449 89.4565 31.0462C89.4565 30.3462 89.9855 29.7672 90.9485 29.4212L92.9335 31.4732C92.7059 31.7704 92.4164 32.0146 92.085 32.1888C91.7537 32.363 91.3884 32.4632 91.0145 32.4822ZM91.6145 26.2822C91.7499 26.2789 91.8845 26.3032 92.0103 26.3535C92.136 26.4038 92.2502 26.4791 92.3459 26.5748C92.4417 26.6706 92.517 26.7848 92.5673 26.9105C92.6176 27.0362 92.6418 27.1709 92.6385 27.3062C92.6385 27.9232 92.1815 28.3752 91.2385 28.6892C90.6655 28.0732 90.4875 27.7522 90.4875 27.3362C90.4873 27.1918 90.5168 27.0488 90.5742 26.9162C90.6315 26.7836 90.7155 26.6642 90.8209 26.5654C90.9263 26.4666 91.0508 26.3904 91.1868 26.3417C91.3228 26.293 91.4674 26.2728 91.6115 26.2822M93.8505 31.3752C94.2496 30.8017 94.5884 30.1884 94.8615 29.5452C94.8715 29.5209 94.8715 29.4936 94.8615 29.4692C94.8514 29.4448 94.832 29.4254 94.8075 29.4152L94.3325 29.2232C94.3088 29.2143 94.2827 29.2148 94.2593 29.2244C94.2359 29.2341 94.2171 29.2522 94.2065 29.2752C93.9791 29.8347 93.6974 30.3706 93.3655 30.8752L91.6945 29.1592C92.8115 28.7412 93.3525 28.1262 93.3525 27.2812C93.3496 27.0595 93.3024 26.8407 93.2138 26.6375C93.1252 26.4343 92.9968 26.2508 92.8363 26.0979C92.6758 25.9449 92.4864 25.8256 92.2792 25.7468C92.072 25.6681 91.8511 25.6315 91.6295 25.6392C91.3937 25.6243 91.1572 25.6573 90.9344 25.7361C90.7116 25.815 90.507 25.9381 90.333 26.098C90.159 26.2579 90.0191 26.4514 89.9217 26.6667C89.8244 26.8821 89.7716 27.1149 89.7665 27.3512C89.7903 27.9528 90.0484 28.5213 90.4855 28.9352C90.0057 29.0568 89.5769 29.3276 89.2609 29.7086C88.9449 30.0896 88.7582 30.5612 88.7275 31.0552C88.7314 31.3428 88.7943 31.6265 88.9123 31.8887C89.0303 32.1509 89.2009 32.3862 89.4135 32.5798C89.6262 32.7734 89.8763 32.9212 90.1484 33.0142C90.4206 33.1072 90.7089 33.1433 90.9955 33.1202C91.4577 33.1144 91.9128 33.0058 92.3279 32.8024C92.743 32.599 93.1077 32.3059 93.3955 31.9442L94.5435 33.1312C94.5525 33.1407 94.5634 33.1481 94.5755 33.1531C94.5875 33.1581 94.6005 33.1605 94.6135 33.1602C94.6364 33.1603 94.6587 33.1526 94.6765 33.1382L95.0905 32.7942C95.1008 32.7855 95.1092 32.7748 95.1152 32.7628C95.1212 32.7508 95.1247 32.7377 95.1255 32.7242C95.1266 32.7109 95.1247 32.6975 95.1198 32.685C95.115 32.6725 95.1074 32.6613 95.0975 32.6522L93.8505 31.3752Z" fill="black"/>
<path d="M101.99 32.3512H100.26V26.4512H101.99C102.392 26.4269 102.794 26.4855 103.172 26.6231C103.55 26.7608 103.896 26.9746 104.187 27.2514C104.479 27.5282 104.711 27.8621 104.869 28.2322C105.026 28.6024 105.106 29.0009 105.103 29.4032V29.4232C105.109 29.8253 105.03 30.2242 104.874 30.5945C104.717 30.9648 104.484 31.2984 104.192 31.5741C103.899 31.8499 103.552 32.0617 103.173 32.1962C102.794 32.3306 102.391 32.3848 101.99 32.3552M101.99 25.7722H99.6381C99.6115 25.7722 99.5861 25.7828 99.5674 25.8015C99.5486 25.8203 99.5381 25.8457 99.5381 25.8722V32.9392C99.5381 32.9657 99.5486 32.9912 99.5674 33.0099C99.5861 33.0287 99.6115 33.0392 99.6381 33.0392H101.99C102.486 33.0707 102.982 33.0001 103.449 32.8317C103.916 32.6633 104.344 32.4007 104.705 32.0602C105.066 31.7197 105.354 31.3086 105.549 30.8524C105.745 30.3962 105.845 29.9047 105.843 29.4082V29.3782C105.844 28.883 105.743 28.3929 105.546 27.9383C105.35 27.4837 105.062 27.0744 104.701 26.7357C104.34 26.397 103.912 26.1362 103.446 25.9694C102.98 25.8026 102.484 25.7335 101.99 25.7662" fill="black"/>
<path d="M108.632 25.7681H108.107C108.094 25.7681 108.081 25.7707 108.069 25.7757C108.056 25.7807 108.045 25.7881 108.036 25.7974C108.027 25.8066 108.019 25.8177 108.014 25.8298C108.009 25.8419 108.007 25.8549 108.007 25.8681V32.9351C108.007 32.9482 108.009 32.9612 108.014 32.9733C108.019 32.9855 108.027 32.9965 108.036 33.0058C108.045 33.0151 108.056 33.0224 108.069 33.0275C108.081 33.0325 108.094 33.0351 108.107 33.0351H108.632C108.658 33.0351 108.684 33.0245 108.703 33.0058C108.721 32.987 108.732 32.9616 108.732 32.9351V25.8681C108.732 25.8416 108.721 25.8161 108.703 25.7974C108.684 25.7786 108.658 25.7681 108.632 25.7681Z" fill="black"/>
<path d="M115.941 30.3818H112.517L114.232 26.6238L115.941 30.3818ZM114.586 25.7728C114.577 25.7563 114.564 25.7424 114.549 25.7327C114.533 25.723 114.515 25.7178 114.497 25.7178H113.997C113.978 25.7178 113.96 25.723 113.944 25.7327C113.929 25.7424 113.916 25.7563 113.908 25.7728L110.617 32.8898C110.611 32.9045 110.608 32.9204 110.61 32.9362C110.611 32.952 110.616 32.9672 110.625 32.9806C110.633 32.9939 110.645 33.0051 110.659 33.0131C110.672 33.0212 110.688 33.0259 110.704 33.0268H111.249C111.267 33.0265 111.285 33.0211 111.301 33.011C111.317 33.0009 111.329 32.9866 111.338 32.9698L112.211 31.0488H116.256L117.128 32.9698C117.136 32.9866 117.148 33.0009 117.164 33.011C117.18 33.0211 117.198 33.0265 117.217 33.0268H117.792C117.808 33.0265 117.823 33.0223 117.837 33.0147C117.852 33.007 117.864 32.9961 117.872 32.9828C117.882 32.9693 117.887 32.9537 117.888 32.9376C117.889 32.9214 117.886 32.9053 117.879 32.8908L114.586 25.7728Z" fill="black"/>
<path d="M126.449 25.7681H125.956C125.941 25.7685 125.926 25.7725 125.912 25.7798C125.898 25.7871 125.886 25.7975 125.877 25.8101L123.121 29.8721L120.365 25.8101C120.357 25.797 120.345 25.7862 120.331 25.7789C120.317 25.7715 120.301 25.7678 120.285 25.7681H119.792C119.766 25.7681 119.74 25.7787 119.722 25.7974C119.703 25.8162 119.692 25.8416 119.692 25.8681V32.9351C119.692 32.9616 119.703 32.9871 119.722 33.0058C119.74 33.0246 119.766 33.0351 119.792 33.0351H120.292C120.319 33.0351 120.344 33.0246 120.363 33.0058C120.382 32.9871 120.392 32.9616 120.392 32.9351V27.1081L123.012 30.9201C123.021 30.9331 123.033 30.9437 123.047 30.9512C123.061 30.9587 123.077 30.9628 123.092 30.9631H123.133C123.149 30.9631 123.165 30.9592 123.178 30.9517C123.192 30.9442 123.204 30.9333 123.212 30.9201L125.831 27.1081V32.9331C125.831 32.9596 125.842 32.9851 125.861 33.0038C125.879 33.0226 125.905 33.0331 125.931 33.0331H126.456C126.469 33.0331 126.482 33.0305 126.495 33.0255C126.507 33.0205 126.518 33.0131 126.527 33.0038C126.536 32.9945 126.544 32.9835 126.549 32.9714C126.554 32.9592 126.556 32.9462 126.556 32.9331V25.8661C126.556 25.853 126.554 25.84 126.549 25.8279C126.544 25.8157 126.536 25.8047 126.527 25.7954C126.518 25.7861 126.507 25.7788 126.495 25.7737C126.482 25.7687 126.469 25.7661 126.456 25.7661" fill="black"/>
<path d="M132.305 32.482C131.909 32.4752 131.519 32.3896 131.157 32.2303C130.795 32.0709 130.469 31.8409 130.197 31.5539C129.925 31.2668 129.713 30.9283 129.573 30.5583C129.434 30.1883 129.369 29.7942 129.384 29.399V29.379C129.365 28.9854 129.425 28.5919 129.562 28.2224C129.699 27.8529 129.909 27.5148 130.18 27.2287C130.451 26.9425 130.777 26.7141 131.139 26.5573C131.5 26.4004 131.89 26.3183 132.284 26.316C132.679 26.3227 133.069 26.4084 133.431 26.5678C133.793 26.7272 134.12 26.9572 134.392 27.2444C134.664 27.5316 134.876 27.8702 135.016 28.2403C135.155 28.6104 135.219 29.0047 135.205 29.4V29.42C135.224 29.8135 135.163 30.2068 135.026 30.5762C134.889 30.9456 134.679 31.2836 134.408 31.5697C134.137 31.8558 133.811 32.0842 133.45 32.2411C133.088 32.3981 132.699 32.4803 132.305 32.483M132.305 25.647C131.817 25.6487 131.334 25.7476 130.885 25.9379C130.436 26.1281 130.029 26.406 129.688 26.7551C129.348 27.1043 129.08 27.5178 128.901 27.9716C128.722 28.4253 128.635 28.9102 128.645 29.398V29.418C128.628 29.9048 128.71 30.3901 128.885 30.8445C129.061 31.2989 129.327 31.7129 129.667 32.0616C130.007 32.4103 130.415 32.6865 130.865 32.8734C131.315 33.0602 131.798 33.154 132.285 33.149C132.77 33.1474 133.251 33.0496 133.699 32.861C134.146 32.6725 134.552 32.397 134.892 32.0505C135.233 31.7041 135.501 31.2935 135.682 30.8427C135.862 30.3918 135.952 29.9096 135.945 29.424C135.954 29.4002 135.954 29.3737 135.945 29.35C135.958 28.8655 135.874 28.3832 135.696 27.9322C135.519 27.4811 135.252 27.0705 134.912 26.725C134.573 26.3795 134.166 26.1062 133.718 25.9215C133.27 25.7367 132.789 25.6444 132.305 25.65" fill="black"/>
<path d="M144.015 25.7681H143.515C143.488 25.7681 143.463 25.7786 143.444 25.7974C143.425 25.8161 143.415 25.8416 143.415 25.8681V31.7371L138.715 25.8081C138.706 25.7967 138.694 25.7875 138.681 25.7811C138.668 25.7748 138.654 25.7713 138.639 25.7711H138.145C138.118 25.7711 138.093 25.7816 138.074 25.8004C138.055 25.8191 138.045 25.8445 138.045 25.8711V32.9381C138.045 32.9646 138.055 32.99 138.074 33.0088C138.093 33.0275 138.118 33.0381 138.145 33.0381H138.645C138.671 33.0381 138.697 33.0275 138.716 33.0088C138.734 32.99 138.745 32.9646 138.745 32.9381V26.9381L143.545 33.0001C143.554 33.0114 143.566 33.0206 143.579 33.027C143.592 33.0334 143.606 33.0368 143.621 33.0371H144.015C144.041 33.0371 144.067 33.0265 144.086 33.0078C144.104 32.989 144.115 32.9636 144.115 32.9371V25.8681C144.115 25.8416 144.104 25.8161 144.086 25.7974C144.067 25.7786 144.041 25.7681 144.015 25.7681Z" fill="black"/>
<path d="M148.972 32.3512H147.242V26.4511H148.972C149.374 26.4269 149.776 26.4854 150.154 26.623C150.532 26.7607 150.878 26.9746 151.17 27.2514C151.462 27.5282 151.694 27.862 151.851 28.2322C152.009 28.6023 152.088 29.0009 152.085 29.4031V29.4231C152.091 29.8253 152.013 30.2242 151.856 30.5944C151.699 30.9647 151.467 31.2983 151.174 31.5741C150.881 31.8498 150.534 32.0616 150.155 32.1961C149.776 32.3306 149.373 32.3847 148.972 32.3552M148.972 25.7721H146.624C146.598 25.7721 146.572 25.7827 146.554 25.8014C146.535 25.8202 146.524 25.8456 146.524 25.8721V32.9392C146.524 32.9657 146.535 32.9911 146.554 33.0099C146.572 33.0286 146.598 33.0391 146.624 33.0391H148.976C149.472 33.0705 149.968 32.9998 150.435 32.8313C150.902 32.6628 151.329 32.4002 151.691 32.0598C152.052 31.7193 152.339 31.3082 152.535 30.8521C152.731 30.396 152.831 29.9045 152.828 29.4081V29.3781C152.829 28.883 152.728 28.393 152.532 27.9385C152.335 27.484 152.048 27.0747 151.686 26.736C151.325 26.3973 150.898 26.1365 150.432 25.9696C149.966 25.8028 149.471 25.7335 148.976 25.7661" fill="black"/>
<path d="M157.346 29.0398C155.68 28.6978 155.364 28.2668 155.364 27.5908V27.5708C155.364 26.8558 156.048 26.3358 156.993 26.3358C157.749 26.321 158.482 26.5986 159.039 27.1108C159.049 27.1192 159.06 27.1256 159.073 27.1293C159.085 27.1331 159.098 27.1343 159.111 27.1328C159.137 27.1304 159.161 27.1178 159.178 27.0978L159.511 26.6838C159.519 26.6742 159.525 26.663 159.528 26.6509C159.532 26.6389 159.533 26.6262 159.531 26.6138C159.528 26.5885 159.516 26.5652 159.496 26.5488C158.807 25.9555 157.922 25.6416 157.013 25.6688C156.729 25.6379 156.442 25.6641 156.168 25.7459C155.894 25.8277 155.64 25.9633 155.419 26.1449C155.199 26.3265 155.017 26.5503 154.884 26.8033C154.751 27.0562 154.67 27.3332 154.646 27.6178V27.6378C154.646 28.7638 155.358 29.3678 157.107 29.7208C158.722 30.0458 159.028 30.4678 159.028 31.1298V31.1498C159.028 31.9188 158.328 32.4568 157.338 32.4568C156.878 32.4668 156.421 32.3809 155.996 32.2046C155.571 32.0283 155.188 31.7655 154.87 31.4328C154.851 31.4154 154.826 31.4061 154.8 31.4068C154.774 31.4085 154.75 31.4203 154.732 31.4398L154.388 31.8338C154.372 31.8532 154.363 31.8782 154.364 31.9037C154.366 31.9292 154.377 31.9532 154.395 31.9708C155.176 32.7243 156.222 33.1394 157.307 33.1258C157.602 33.1645 157.902 33.1419 158.188 33.0594C158.473 32.9768 158.739 32.8361 158.968 32.6461C159.197 32.4561 159.384 32.2208 159.518 31.9551C159.651 31.6894 159.729 31.3989 159.745 31.1018V31.0818C159.745 29.9888 159.03 29.3818 157.345 29.0358" fill="black"/>
</svg>
