<svg width="150" height="104" viewBox="0 0 150 104" fill="none" xmlns="http://www.w3.org/2000/svg">
<g clip-path="url(#clip0_4016_397)">
<path d="M0 95.9794L1.85103 91.0317H2.47613L4.3484 95.9794H3.8204L3.32882 94.6679H1.00441L0.512826 95.9794H0ZM1.1622 94.2298H3.16799L2.22427 91.7291C2.20303 91.6606 2.16661 91.5771 2.16054 91.5294C2.15447 91.5711 2.12413 91.6606 2.09682 91.7291L1.1622 94.2298Z" fill="#CECECE"/>
<path d="M5.0498 95.9794V91.0317H6.57008C8.09035 91.0317 9.10386 92.0272 9.10386 93.5055C9.10386 94.9839 8.09641 95.9794 6.58525 95.9794H5.0498ZM5.55656 91.4877V95.5233H6.56097C7.79297 95.5233 8.5789 94.7365 8.5789 93.5055C8.5789 92.2686 7.78993 91.4877 6.5458 91.4877H5.55656Z" fill="#CECECE"/>
<path d="M9.27637 91.0317H9.81954L11.1638 94.4742C11.27 94.7424 11.3671 95.0137 11.4794 95.3594C11.5856 94.9988 11.71 94.656 11.7889 94.4682L13.1241 91.0347H13.646L11.7313 95.9824H11.2033L9.27637 91.0317Z" fill="#CECECE"/>
<path d="M14.3262 95.9794V91.0317H17.3364V91.4877H14.8329V93.2701H17.1057V93.7201H14.8329V95.5233H17.3455V95.9794H14.3262Z" fill="#CECECE"/>
<path d="M18.3672 95.9794V91.0317H20.2455C21.2651 91.0317 21.8841 91.5831 21.8841 92.4623C21.8841 93.1747 21.5048 93.6724 20.8585 93.8453L21.9357 95.9794H21.3743L20.3457 93.9258H18.8739V95.9794H18.3672ZM18.8739 93.4787H20.2607C20.9586 93.4787 21.3652 93.1061 21.3652 92.4772C21.3652 91.8334 20.9374 91.4817 20.2455 91.4817H18.8739V93.4787Z" fill="#CECECE"/>
<path d="M22.2695 91.0317H25.8775V91.4877H24.3239V95.9794H23.8171V91.4877H22.2695V91.0317Z" fill="#CECECE"/>
<path d="M27.08 95.9794H26.5732V91.0317H27.08V95.9794Z" fill="#CECECE"/>
<path d="M29.6894 90.9423C30.5967 90.9423 31.1945 91.44 31.2734 92.2686H30.7605C30.7059 91.7083 30.3175 91.3923 29.6833 91.3923C28.9732 91.3923 28.509 91.753 28.509 92.3103C28.509 92.7455 28.7699 93.0227 29.2979 93.1538L30.1627 93.3625C30.9517 93.5502 31.3583 93.9914 31.3583 94.662C31.3583 95.5174 30.6816 96.0658 29.6408 96.0658C28.6637 96.0658 28.0022 95.5621 27.9385 94.7514H28.4604C28.4877 95.27 28.952 95.6068 29.6439 95.6068C30.3812 95.6068 30.8546 95.2551 30.8546 94.6888C30.8546 94.2477 30.6027 93.9556 30.0596 93.8304L29.2069 93.6218C28.4179 93.434 28.0052 92.9929 28.0052 92.3163C28.0022 91.4877 28.6759 90.9423 29.6894 90.9423Z" fill="#CECECE"/>
<path d="M32.7695 95.9794H32.2627V91.0317H32.7695V95.9794Z" fill="#CECECE"/>
<path d="M33.9922 95.9794V91.0317H34.505L37.2755 95.1508V91.0317H37.7762V95.9794H37.2755L34.4959 91.8603V95.9794H33.9922Z" fill="#CECECE"/>
<path d="M39.2233 93.5265C39.2233 94.8111 39.9971 95.592 41.129 95.592C41.9725 95.592 42.7949 95.1926 42.7949 94.0034V93.747H40.9742V93.3059H43.2743V95.9854H42.8738L42.8252 95.1985C42.5582 95.6903 41.924 96.0629 41.1077 96.0629C39.6785 96.0629 38.6953 95.0525 38.6953 93.5265C38.6953 92.0124 39.6815 90.9483 41.1229 90.9483C42.185 90.9483 43.0073 91.5414 43.2045 92.4415H42.6553C42.4429 91.765 41.8542 91.4192 41.1138 91.4192C39.9577 91.4192 39.2233 92.2627 39.2233 93.5265Z" fill="#CECECE"/>
<path d="M46.2305 91.0317H48.0724C49.0434 91.0317 49.6412 91.5145 49.6412 92.3103C49.6412 92.8915 49.3802 93.285 48.8614 93.4847C49.444 93.6724 49.7414 94.0718 49.7414 94.6799C49.7414 95.4757 49.1375 95.9794 48.1786 95.9794H46.2305V91.0317ZM46.7372 91.4728V93.282H48.13C48.7643 93.282 49.1223 92.9362 49.1223 92.3491C49.1223 91.7977 48.743 91.4728 48.0663 91.4728H46.7372ZM46.7372 93.7201V95.5293H48.1786C48.8401 95.5293 49.2255 95.1895 49.2255 94.6173C49.2255 94.0569 48.831 93.7201 48.1786 93.7201H46.7372Z" fill="#CECECE"/>
<path d="M51.1581 95.9794H50.6514V91.0317H51.1581V95.9794Z" fill="#CECECE"/>
<path d="M52.8876 95.5233H55.2029V95.9794H52.3809V91.0317H52.8876V95.5233Z" fill="#CECECE"/>
<path d="M56.4687 95.5233H58.784V95.9794H55.9619V91.0317H56.4687V95.5233Z" fill="#CECECE"/>
<path d="M59.5391 91.0317H61.381C62.352 91.0317 62.9498 91.5145 62.9498 92.3103C62.9498 92.8915 62.6888 93.285 62.1699 93.4847C62.7526 93.6724 63.0499 94.0718 63.0499 94.6799C63.0499 95.4757 62.4461 95.9794 61.4872 95.9794H59.5391V91.0317ZM60.0458 91.4728V93.282H61.4386C62.0728 93.282 62.4309 92.9362 62.4309 92.3491C62.4309 91.7977 62.0516 91.4728 61.3749 91.4728H60.0458ZM60.0458 93.7201V95.5293H61.4872C62.1487 95.5293 62.5341 95.1895 62.5341 94.6173C62.5341 94.0569 62.1396 93.7201 61.4872 93.7201H60.0458Z" fill="#CECECE"/>
<path d="M66.0546 96.0628C64.6405 96.0628 63.6543 95.0047 63.6543 93.5055C63.6543 92.0063 64.6466 90.9423 66.0546 90.9423C67.4686 90.9423 68.4548 92.0004 68.4548 93.5055C68.4518 95.0047 67.4595 96.0628 66.0546 96.0628ZM66.0546 91.4251C64.9439 91.4251 64.1823 92.2686 64.1823 93.5055C64.1823 94.7425 64.9409 95.5859 66.0546 95.5859C67.1682 95.5859 67.9329 94.7365 67.9329 93.5055C67.9329 92.2686 67.1652 91.4251 66.0546 91.4251Z" fill="#CECECE"/>
<path d="M68.6611 95.9794L70.5122 91.0317H71.1373L73.0095 95.9794H72.4815L71.9899 94.6679H69.6686L69.177 95.9794H68.6611ZM69.8233 94.2298H71.8291L70.8854 91.7291C70.8642 91.6606 70.8308 91.5771 70.8217 91.5294C70.8156 91.5711 70.7853 91.6606 70.7579 91.7291L69.8233 94.2298Z" fill="#CECECE"/>
<path d="M73.71 95.9794V91.0317H75.5883C76.6079 91.0317 77.2269 91.5831 77.2269 92.4623C77.2269 93.1747 76.8476 93.6724 76.2013 93.8453L77.2785 95.9794H76.7171L75.6884 93.9258H74.2197V95.9794H73.71ZM74.2167 93.4787H75.6035C76.3014 93.4787 76.708 93.1061 76.708 92.4772C76.708 91.8334 76.2802 91.4817 75.5883 91.4817H74.2167V93.4787Z" fill="#CECECE"/>
<path d="M78.2109 95.9794V91.0317H79.7312C81.2515 91.0317 82.265 92.0272 82.265 93.5055C82.265 94.9839 81.2606 95.9794 79.7464 95.9794H78.2109ZM78.7177 91.4877V95.5233H79.7221C80.9541 95.5233 81.74 94.7365 81.74 93.5055C81.74 92.2686 80.9511 91.4877 79.7069 91.4877H78.7177Z" fill="#CECECE"/>
<path d="M84.5614 90.9423C85.4687 90.9423 86.0665 91.44 86.1454 92.2686H85.6326C85.578 91.7083 85.1896 91.3923 84.5554 91.3923C83.8453 91.3923 83.381 91.753 83.381 92.3103C83.381 92.7455 83.642 93.0227 84.17 93.1538L85.0348 93.3625C85.8238 93.5502 86.2304 93.9914 86.2304 94.662C86.2304 95.5174 85.5537 96.0658 84.5129 96.0658C83.5358 96.0658 82.8743 95.5621 82.8105 94.7514H83.3325C83.3598 95.27 83.8241 95.6068 84.5159 95.6068C85.2533 95.6068 85.7267 95.2551 85.7267 94.6888C85.7267 94.2477 85.4748 93.9556 84.9316 93.8304L84.079 93.6218C83.29 93.434 82.8773 92.9929 82.8773 92.3163C82.8743 91.4877 83.5479 90.9423 84.5614 90.9423Z" fill="#CECECE"/>
<path d="M69.7354 101.443C69.7354 99.9232 70.7064 98.886 72.1265 98.886C73.2098 98.886 74.0625 99.5298 74.2658 100.51H73.7226C73.5102 99.798 72.8912 99.3629 72.1053 99.3629C71.0007 99.3629 70.2634 100.191 70.2634 101.443C70.2634 102.686 71.0007 103.518 72.1053 103.518C72.9003 103.518 73.5345 103.097 73.75 102.433H74.2931C74.0625 103.366 73.1825 103.995 72.0992 103.995C70.6912 103.992 69.7354 102.963 69.7354 101.443Z" fill="#CECECE"/>
<path d="M77.2606 104C75.8466 104 74.8604 102.942 74.8604 101.443C74.8604 99.9435 75.8526 98.8795 77.2606 98.8795C78.6747 98.8795 79.6609 99.9375 79.6609 101.443C79.6578 102.942 78.6656 104 77.2606 104ZM77.2606 99.3623C76.15 99.3623 75.3884 100.206 75.3884 101.443C75.3884 102.68 76.147 103.523 77.2606 103.523C78.3743 103.523 79.139 102.674 79.139 101.443C79.139 100.206 78.3712 99.3623 77.2606 99.3623Z" fill="#CECECE"/>
<path d="M80.5771 103.917V98.9689H81.09L83.8604 103.088V98.9689H84.3611V103.917H83.8604L81.0809 99.7975V103.917H80.5771Z" fill="#CECECE"/>
<path d="M85.0654 98.9689H88.6734V99.4249H87.1198V103.917H86.613V99.4249H85.0654V98.9689Z" fill="#CECECE"/>
<path d="M89.3682 103.917V98.9689H91.2465C92.2661 98.9689 92.8851 99.5203 92.8851 100.4C92.8851 101.112 92.5058 101.61 91.8595 101.783L92.9367 103.917H92.3753L91.3466 101.863H89.878V103.917H89.3682ZM89.8749 101.416H91.2617C91.9596 101.416 92.3662 101.043 92.3662 100.414C92.3662 99.7706 91.9384 99.4189 91.2465 99.4189H89.8749V101.416Z" fill="#CECECE"/>
<path d="M93.3555 103.917L95.2065 98.9689H95.8316L97.7039 103.917H97.1759L96.6843 102.605H94.3629L93.8713 103.917H93.3555ZM94.5177 102.167H96.5235L95.5797 99.6663C95.5585 99.5978 95.5251 99.5143 95.516 99.4666C95.5099 99.5084 95.4796 99.5978 95.4523 99.6663L94.5177 102.167Z" fill="#CECECE"/>
<path d="M97.8984 101.443C97.8984 99.923 98.8695 98.8857 100.29 98.8857C101.373 98.8857 102.226 99.5295 102.429 100.51H101.886C101.673 99.7978 101.054 99.3626 100.268 99.3626C99.1638 99.3626 98.4264 100.191 98.4264 101.443C98.4264 102.686 99.1638 103.518 100.268 103.518C101.063 103.518 101.698 103.097 101.913 102.433H102.456C102.226 103.366 101.346 103.994 100.262 103.994C98.8543 103.991 97.8984 102.963 97.8984 101.443Z" fill="#CECECE"/>
<path d="M102.525 98.9689H106.133V99.4249H104.58V103.917H104.073V99.4249H102.525V98.9689Z" fill="#CECECE"/>
<path d="M107.336 103.917H106.829V98.9689H107.336V103.917Z" fill="#CECECE"/>
<path d="M108.559 103.917V98.9689H109.071L111.842 103.088V98.9689H112.343V103.917H111.842L109.062 99.7975V103.917H108.559Z" fill="#CECECE"/>
<path d="M113.79 101.464C113.79 102.749 114.564 103.529 115.695 103.529C116.539 103.529 117.361 103.127 117.361 101.941V101.684H115.541V101.243H117.841V103.923H117.44L117.392 103.136C117.125 103.628 116.49 104 115.674 104C114.245 104 113.262 102.99 113.262 101.464C113.262 99.9498 114.248 98.8857 115.689 98.8857C116.751 98.8857 117.574 99.4789 117.771 100.379H117.222C117.009 99.7024 116.421 99.3567 115.68 99.3567C114.521 99.3567 113.79 100.2 113.79 101.464Z" fill="#CECECE"/>
<path d="M120.483 101.443C120.483 99.9227 121.454 98.8855 122.875 98.8855C123.958 98.8855 124.811 99.5293 125.014 100.51H124.471C124.258 99.7975 123.639 99.3624 122.853 99.3624C121.749 99.3624 121.011 100.191 121.011 101.443C121.011 102.686 121.749 103.517 122.853 103.517C123.648 103.517 124.283 103.097 124.498 102.432H125.041C124.811 103.365 123.931 103.994 122.847 103.994C121.442 103.991 120.483 102.963 120.483 101.443Z" fill="#CECECE"/>
<path d="M128.01 104C126.596 104 125.609 102.942 125.609 101.443C125.609 99.9435 126.602 98.8795 128.01 98.8795C129.424 98.8795 130.41 99.9375 130.41 101.443C130.41 102.942 129.418 104 128.01 104ZM128.01 99.3623C126.899 99.3623 126.137 100.206 126.137 101.443C126.137 102.68 126.896 103.523 128.01 103.523C129.12 103.523 129.888 102.674 129.888 101.443C129.888 100.206 129.123 99.3623 128.01 99.3623Z" fill="#CECECE"/>
<path d="M130.88 103.571C130.88 103.335 131.083 103.136 131.323 103.136C131.563 103.136 131.766 103.335 131.766 103.571C131.766 103.8 131.563 103.991 131.323 103.991C131.083 103.991 130.88 103.797 130.88 103.571Z" fill="#CECECE"/>
<path d="M135.31 103.461H137.626V103.917H134.804V98.9689H135.31V103.461Z" fill="#CECECE"/>
<path d="M138.46 103.571C138.46 103.335 138.663 103.136 138.903 103.136C139.143 103.136 139.346 103.335 139.346 103.571C139.346 103.8 139.143 103.991 138.903 103.991C138.663 103.991 138.46 103.797 138.46 103.571Z" fill="#CECECE"/>
<path d="M140.942 103.461H143.258V103.917H140.436V98.9689H140.942V103.461Z" fill="#CECECE"/>
<path d="M144.092 103.571C144.092 103.335 144.295 103.136 144.535 103.136C144.775 103.136 144.978 103.335 144.978 103.571C144.978 103.8 144.775 103.991 144.535 103.991C144.295 103.991 144.092 103.797 144.092 103.571Z" fill="#CECECE"/>
<path d="M145.442 101.443C145.442 99.923 146.413 98.8857 147.834 98.8857C148.917 98.8857 149.77 99.5295 149.973 100.51H149.43C149.217 99.7978 148.598 99.3626 147.812 99.3626C146.708 99.3626 145.97 100.191 145.97 101.443C145.97 102.686 146.708 103.518 147.812 103.518C148.607 103.518 149.242 103.097 149.457 102.433H150C149.77 103.366 148.89 103.994 147.806 103.994C146.398 103.991 145.442 102.963 145.442 101.443Z" fill="#CECECE"/>
<path d="M0 84.4268V63.2709H5.05239V84.4268H0Z" fill="#CECECE"/>
<path d="M9.03027 84.4268V63.2709H29.0851C36.9474 63.2709 41.5598 65.9385 41.5598 73.8161C41.5598 81.8486 36.8867 84.4238 29.0851 84.4238H9.03027V84.4268ZM14.0827 80.1766H28.6087C34.1678 80.1766 36.3132 78.6267 36.3132 73.8191C36.3132 69.0413 34.1648 67.5212 28.6087 67.5212H14.0827V80.1766Z" fill="#CECECE"/>
<path d="M44.2725 73.8488C44.2725 66.2485 49.6101 62.8685 61.5781 62.8685C73.546 62.8685 78.8836 66.2485 78.8836 73.8488C78.8836 81.4492 73.546 84.8292 61.5781 84.8292C49.6101 84.8292 44.2725 81.4462 44.2725 73.8488ZM73.7675 73.8488C73.7675 69.1038 70.8302 67.1486 61.5781 67.1486C52.3259 67.1486 49.3249 69.1038 49.3249 73.8488C49.3249 78.5939 52.3259 80.5491 61.5781 80.5491C70.8302 80.5491 73.7675 78.5939 73.7675 73.8488Z" fill="#CECECE"/>
<path d="M81.5996 73.8488C81.5996 66.2485 86.9372 62.8685 98.9052 62.8685C110.873 62.8685 116.211 66.2485 116.211 73.8488C116.211 81.4492 110.873 84.8292 98.9052 84.8292C86.9372 84.8292 81.5996 81.4462 81.5996 73.8488ZM111.095 73.8488C111.095 69.1038 108.157 67.1486 98.9052 67.1486C89.6531 67.1486 86.652 69.1038 86.652 73.8488C86.652 78.5939 89.6531 80.5491 98.9052 80.5491C108.157 80.5491 111.095 78.5939 111.095 73.8488Z" fill="#CECECE"/>
<path d="M119.559 84.4268V63.2709H124.611V71.3661H144.948V63.2709H150V84.4268H144.948V75.6461H124.611V84.4238H119.559V84.4268Z" fill="#CECECE"/>
<path d="M92.536 50.2966L30.8027 38.9884V11.3082L92.536 0V50.2966Z" fill="#CECECE"/>
<path d="M97.0723 50.2966L119.197 40.7857V20.524L97.0723 10.6942V50.2966Z" fill="#CECECE"/>
</g>
<defs>
<clipPath id="clip0_4016_397">
<rect width="150" height="104" fill="white"/>
</clipPath>
</defs>
</svg>
