<svg width="249" height="143" viewBox="0 0 249 143" fill="none" xmlns="http://www.w3.org/2000/svg">
<g clip-path="url(#clip0_4035_14)">
<path d="M0 142.347V106.672H8.36213V142.347H0Z" fill="white"/>
<path d="M15.0117 142.347V106.672H48.3091C61.356 106.672 69.0129 111.144 69.0129 124.459C69.0129 138.026 61.2553 142.347 48.3091 142.347H15.0117ZM23.3738 135.162H47.5031C56.7216 135.162 60.2982 132.549 60.2982 124.459C60.2982 116.42 56.7216 113.857 47.5031 113.857H23.3738V135.162Z" fill="white"/>
<path d="M73.4961 124.509C73.4961 111.697 82.362 106.019 102.209 106.019C122.057 106.019 130.923 111.697 130.923 124.509C130.923 137.322 122.057 143 102.209 143C82.362 143 73.4961 137.322 73.4961 124.509ZM122.46 124.509C122.46 116.52 117.574 113.204 102.209 113.204C86.8453 113.204 81.8582 116.52 81.8582 124.509C81.8582 132.499 86.8453 135.815 102.209 135.815C117.574 135.815 122.46 132.499 122.46 124.509Z" fill="white"/>
<path d="M135.457 124.509C135.457 111.697 144.322 106.019 164.17 106.019C184.017 106.019 192.883 111.697 192.883 124.509C192.883 137.322 184.017 143 164.17 143C144.322 143 135.457 137.322 135.457 124.509ZM184.42 124.509C184.42 116.52 179.534 113.204 164.17 113.204C148.806 113.204 143.819 116.52 143.819 124.509C143.819 132.499 148.806 135.815 164.17 135.815C179.534 135.815 184.42 132.499 184.42 124.509Z" fill="white"/>
<path d="M198.475 142.347V106.672H206.837V120.339H240.588V106.672H248.95V142.347H240.588V127.524H206.837V142.297L198.475 142.347Z" fill="white"/>
<path d="M153.642 84.8152L51.1299 65.7217V19.0432L153.642 0V84.8152Z" fill="#CE1F06"/>
<path d="M161.147 84.8152L197.87 68.7365V34.6195L161.147 18.0383V84.8152Z" fill="#CE1F06"/>
</g>
<defs>
<clipPath id="clip0_4035_14">
<rect width="249" height="143" fill="white"/>
</clipPath>
</defs>
</svg>
